<?xml version="1.0" encoding="UTF-8"?>
<svg xmlns="http://www.w3.org/2000/svg" xmlns:xlink="http://www.w3.org/1999/xlink" width="62pt" height="62pt" viewBox="0 0 62 62" version="1.1">
<g id="surface1">
<path style=" stroke:none;fill-rule:nonzero;fill:rgb(68.235294%,56.862745%,45.098039%);fill-opacity:1;" d="M 62 31 C 62 48.121094 48.121094 62 31 62 C 13.878906 62 0 48.121094 0 31 C 0 13.878906 13.878906 0 31 0 C 48.121094 0 62 13.878906 62 31 Z M 62 31 "/>
<path style=" stroke:none;fill-rule:nonzero;fill:rgb(100%,100%,100%);fill-opacity:1;" d="M 13.71875 19.980469 C 11.949219 19.980469 10.523438 21.421875 10.523438 23.171875 L 10.523438 38.828125 C 10.523438 40.59375 11.964844 42.019531 13.71875 42.019531 L 48.28125 42.019531 C 50.050781 42.019531 51.476562 40.578125 51.476562 38.828125 L 51.476562 23.171875 C 51.476562 21.40625 50.035156 19.980469 48.28125 19.980469 Z M 13.71875 21.546875 L 48.28125 21.546875 C 49.164062 21.53125 49.894531 22.226562 49.910156 23.109375 C 49.910156 23.125 49.910156 23.140625 49.910156 23.15625 L 49.910156 38.8125 C 49.925781 39.695312 49.226562 40.425781 48.34375 40.441406 C 48.328125 40.441406 48.296875 40.441406 48.28125 40.441406 L 13.71875 40.441406 C 12.835938 40.453125 12.105469 39.757812 12.089844 38.875 C 12.089844 38.859375 12.089844 38.84375 12.089844 38.828125 L 12.089844 23.171875 C 12.074219 22.289062 12.773438 21.558594 13.65625 21.546875 C 13.671875 21.546875 13.703125 21.546875 13.71875 21.546875 Z M 16.738281 22.304688 L 16.738281 23.09375 C 16.738281 24.660156 15.40625 25.945312 13.671875 25.945312 L 12.878906 25.945312 L 12.878906 36.039062 L 13.671875 36.039062 C 15.390625 36.039062 16.738281 37.339844 16.738281 38.890625 L 16.738281 39.679688 L 45.277344 39.679688 L 45.277344 38.90625 C 45.277344 37.339844 46.609375 36.054688 48.34375 36.054688 L 49.136719 36.054688 L 49.136719 25.960938 L 48.34375 25.960938 C 46.625 25.960938 45.277344 24.660156 45.277344 23.109375 L 45.277344 22.320312 Z M 17.980469 23.886719 L 44.035156 23.886719 C 44.421875 25.636719 45.726562 26.878906 47.539062 27.21875 L 47.539062 34.78125 C 45.726562 35.121094 44.40625 36.363281 44.035156 38.113281 L 17.964844 38.113281 C 17.59375 36.363281 16.273438 35.121094 14.460938 34.78125 L 14.460938 27.21875 C 16.273438 26.878906 17.59375 25.636719 17.980469 23.886719 Z M 27.09375 24.691406 L 27.09375 26.289062 L 28.691406 26.289062 C 30.164062 26.289062 30.90625 26.984375 31.171875 27.851562 L 27.078125 27.851562 L 27.078125 29.433594 L 31.15625 29.433594 C 30.890625 30.300781 30.148438 31 28.675781 31 L 27.078125 31 L 27.078125 32.582031 L 27.527344 32.582031 L 32.332031 37.324219 L 33.433594 36.207031 L 29.667969 32.488281 C 31.21875 32.195312 32.441406 31 32.765625 29.449219 L 34.921875 29.449219 L 34.921875 27.867188 L 32.765625 27.867188 C 32.644531 27.296875 32.378906 26.753906 32.007812 26.289062 L 34.921875 26.289062 L 34.921875 24.707031 Z M 17.625 29.417969 C 16.753906 29.417969 16.042969 30.117188 16.042969 30.984375 C 16.042969 31.851562 16.738281 32.566406 17.609375 32.566406 C 18.476562 32.566406 19.1875 31.867188 19.1875 31 C 19.1875 31 19.1875 30.984375 19.1875 30.984375 C 19.171875 30.132812 18.476562 29.433594 17.625 29.417969 Z M 44.40625 29.417969 C 43.539062 29.417969 42.828125 30.117188 42.828125 30.984375 C 42.828125 31.851562 43.523438 32.566406 44.390625 32.566406 C 45.261719 32.566406 45.972656 31.867188 45.972656 31 C 45.972656 31 45.972656 30.984375 45.972656 30.984375 C 45.957031 30.132812 45.261719 29.433594 44.40625 29.417969 Z M 44.40625 29.417969 "/>
</g>
</svg>
