<?xml version="1.0" encoding="UTF-8"?>
<svg xmlns="http://www.w3.org/2000/svg" xmlns:xlink="http://www.w3.org/1999/xlink" width="62pt" height="62pt" viewBox="0 0 62 62" version="1.1">
<g id="surface1">
<path style=" stroke:none;fill-rule:nonzero;fill:rgb(68.235294%,56.862745%,45.098039%);fill-opacity:1;" d="M 62 31 C 62 48.121094 48.121094 62 31 62 C 13.878906 62 0 48.121094 0 31 C 0 13.878906 13.878906 0 31 0 C 48.121094 0 62 13.878906 62 31 Z M 62 31 "/>
<path style=" stroke:none;fill-rule:nonzero;fill:rgb(100%,100%,100%);fill-opacity:1;" d="M 23.699219 51.242188 C 23.714844 51.289062 23.714844 51.351562 23.746094 51.398438 C 23.730469 51.351562 23.714844 51.289062 23.699219 51.242188 M 30.378906 47.832031 C 30.378906 47.910156 30.363281 47.988281 30.347656 48.050781 C 30.285156 48.296875 30.332031 48.5625 30.210938 48.792969 C 30.148438 48.933594 30.085938 49.058594 30.023438 49.195312 C 29.929688 49.304688 29.851562 49.414062 29.789062 49.539062 C 29.714844 49.753906 29.511719 50.128906 29.511719 50.359375 C 29.511719 50.128906 29.699219 49.753906 29.789062 49.539062 C 29.851562 49.414062 29.929688 49.289062 30.023438 49.195312 C 30.070312 49.152344 30.117188 49.089844 30.148438 49.027344 C 30.195312 48.949219 30.179688 48.871094 30.210938 48.792969 C 30.332031 48.5625 30.285156 48.296875 30.347656 48.050781 C 30.363281 47.972656 30.378906 47.910156 30.378906 47.832031 M 19.375 40.238281 C 19.375 40.269531 19.375 40.316406 19.390625 40.347656 C 19.421875 40.425781 19.453125 40.515625 19.515625 40.578125 C 19.621094 40.75 19.652344 41.183594 19.667969 41.386719 C 19.683594 41.570312 19.714844 41.742188 19.761719 41.910156 C 19.730469 41.742188 19.699219 41.554688 19.683594 41.386719 C 19.667969 41.183594 19.636719 40.75 19.53125 40.578125 C 19.484375 40.5 19.4375 40.425781 19.40625 40.347656 C 19.40625 40.316406 19.390625 40.269531 19.375 40.238281 M 37.136719 38.671875 C 36.921875 38.9375 36.472656 39.585938 36.472656 39.585938 C 36.378906 39.710938 36.378906 39.664062 36.285156 39.726562 C 36.191406 39.789062 36.222656 39.988281 36.085938 40.066406 L 35.402344 40.410156 C 35.246094 40.484375 35.183594 40.640625 35.046875 40.71875 C 34.90625 40.964844 34.703125 41.167969 34.457031 41.308594 L 33.527344 41.851562 C 33.386719 41.972656 33.292969 42.144531 33.246094 42.316406 C 33.292969 42.144531 33.386719 41.972656 33.527344 41.851562 L 34.457031 41.308594 C 34.703125 41.167969 34.90625 40.964844 35.046875 40.71875 C 35.183594 40.625 35.246094 40.484375 35.402344 40.410156 L 36.085938 40.066406 C 36.222656 39.988281 36.207031 39.773438 36.285156 39.726562 C 36.363281 39.679688 36.378906 39.710938 36.472656 39.585938 L 36.875 39.089844 C 36.984375 38.96875 37.046875 38.8125 37.136719 38.671875 M 37.851562 38.050781 L 37.851562 38.066406 C 37.773438 38.222656 37.371094 38.53125 37.230469 38.578125 C 37.355469 38.53125 37.773438 38.238281 37.851562 38.066406 L 37.851562 38.050781 M 40.082031 36.550781 C 40.035156 36.609375 39.988281 36.671875 39.945312 36.734375 L 39.945312 36.71875 C 40.003906 36.6875 40.035156 36.59375 40.082031 36.550781 M 40.332031 36.316406 C 40.332031 36.457031 40.175781 36.457031 40.082031 36.535156 C 40.175781 36.457031 40.332031 36.457031 40.332031 36.316406 M 40.640625 35 C 40.5 35.0625 40.441406 35.183594 40.316406 35.261719 C 40.207031 35.308594 40.144531 35.417969 40.144531 35.527344 C 40.144531 35.402344 40.207031 35.308594 40.316406 35.261719 C 40.441406 35.183594 40.515625 35.046875 40.640625 35 M 40.640625 35 L 40.640625 35 M 41.261719 34.8125 C 41.058594 34.859375 40.78125 34.9375 40.65625 34.984375 C 40.828125 34.921875 41.011719 34.921875 41.199219 34.84375 C 41.214844 34.828125 41.246094 34.828125 41.261719 34.8125 M 41.476562 34.765625 L 41.371094 34.796875 C 41.414062 34.78125 41.445312 34.765625 41.476562 34.765625 M 13.40625 33.710938 C 13.40625 33.820312 13.546875 33.992188 13.59375 34.070312 C 13.71875 34.285156 13.917969 34.425781 14.074219 34.597656 L 14.710938 35.214844 L 15.65625 36.070312 C 15.792969 36.222656 15.996094 36.316406 16.214844 36.316406 C 16.507812 36.316406 16.785156 36.128906 17.160156 35.992188 C 17.234375 35.929688 17.265625 35.867188 17.359375 35.867188 C 17.375 35.867188 17.390625 35.867188 17.40625 35.867188 L 17.421875 35.867188 C 17.5625 35.867188 17.777344 35.679688 17.902344 35.648438 C 18.027344 35.617188 18.074219 35.589844 18.074219 35.496094 C 18.074219 35.589844 18.011719 35.617188 17.902344 35.648438 C 17.792969 35.679688 17.546875 35.867188 17.421875 35.867188 L 17.40625 35.867188 C 17.390625 35.867188 17.375 35.867188 17.359375 35.867188 C 17.265625 35.867188 17.234375 35.929688 17.160156 35.992188 C 16.785156 36.128906 16.507812 36.316406 16.214844 36.316406 C 15.996094 36.300781 15.792969 36.222656 15.65625 36.070312 L 14.074219 34.597656 C 13.917969 34.425781 13.71875 34.269531 13.59375 34.070312 C 13.546875 33.976562 13.40625 33.820312 13.40625 33.710938 "/>
<path style=" stroke:none;fill-rule:nonzero;fill:rgb(100%,100%,100%);fill-opacity:1;" d="M 15.34375 32.488281 C 15.3125 32.488281 15.3125 32.503906 15.3125 32.519531 L 15.3125 32.550781 C 15.3125 32.566406 15.3125 32.582031 15.3125 32.613281 L 15.3125 32.628906 C 15.3125 32.644531 15.3125 32.644531 15.3125 32.660156 C 15.3125 32.675781 15.328125 32.703125 15.34375 32.703125 C 15.359375 32.703125 15.375 32.71875 15.390625 32.703125 C 15.421875 32.703125 15.46875 32.691406 15.5 32.675781 L 15.5 32.582031 C 15.5 32.582031 15.484375 32.582031 15.484375 32.582031 C 15.46875 32.582031 15.453125 32.582031 15.453125 32.566406 C 15.421875 32.550781 15.390625 32.503906 15.34375 32.488281 M 21.949219 8.371094 C 21.886719 8.371094 21.839844 8.585938 21.808594 8.601562 L 21.761719 8.539062 C 21.589844 8.570312 21.421875 8.648438 21.28125 8.757812 C 21.1875 8.835938 21.078125 8.867188 20.957031 8.882812 C 20.894531 8.882812 20.816406 8.867188 20.769531 8.820312 C 20.722656 8.789062 20.675781 8.757812 20.628906 8.773438 L 20.507812 8.773438 C 20.476562 8.773438 20.460938 8.773438 20.429688 8.757812 L 20.570312 8.882812 C 20.628906 8.914062 20.675781 8.972656 20.707031 9.050781 C 20.707031 9.082031 20.691406 9.097656 20.660156 9.097656 C 20.554688 9.113281 20.445312 9.128906 20.335938 9.128906 L 20.320312 9.128906 C 20.210938 9.128906 20.179688 9.066406 20.089844 9.066406 L 20.042969 9.066406 C 19.871094 9.097656 19.699219 9.128906 19.53125 9.175781 C 19.5 9.300781 19.515625 9.378906 19.390625 9.46875 C 19.21875 9.59375 19.203125 9.78125 19.019531 9.90625 C 18.832031 10.027344 18.675781 9.996094 18.675781 10.183594 C 18.675781 10.230469 18.691406 10.277344 18.691406 10.324219 C 18.691406 10.339844 18.691406 10.355469 18.691406 10.386719 C 18.691406 10.429688 18.691406 10.476562 18.691406 10.507812 C 18.691406 10.570312 18.722656 10.617188 18.753906 10.664062 C 18.785156 10.695312 18.816406 10.726562 18.863281 10.726562 C 18.925781 10.726562 18.988281 10.679688 19.082031 10.679688 C 19.128906 10.679688 19.171875 10.726562 19.234375 10.742188 C 19.265625 10.742188 19.3125 10.726562 19.34375 10.710938 C 19.375 10.695312 19.421875 10.679688 19.46875 10.679688 C 19.484375 10.679688 19.515625 10.695312 19.515625 10.710938 C 19.683594 11.175781 20.027344 11.222656 20.460938 11.300781 C 20.523438 11.316406 20.554688 11.347656 20.554688 11.378906 C 20.554688 11.453125 20.460938 11.5625 20.445312 11.671875 C 20.445312 11.6875 20.445312 11.703125 20.445312 11.71875 C 20.445312 11.902344 20.753906 11.84375 20.878906 11.949219 C 20.972656 11.996094 20.988281 12.011719 20.988281 12.058594 C 20.988281 12.105469 20.972656 12.121094 20.957031 12.183594 C 20.925781 12.382812 20.878906 12.492188 20.675781 12.570312 C 20.507812 12.648438 20.507812 12.664062 20.429688 12.820312 C 20.320312 13.019531 20.132812 12.941406 20.027344 13.128906 C 19.996094 13.191406 19.980469 13.269531 19.980469 13.34375 C 19.996094 13.5 20.027344 13.640625 20.089844 13.78125 C 20.101562 13.902344 20.132812 14.011719 20.164062 14.121094 C 20.210938 14.199219 20.226562 14.277344 20.242188 14.351562 C 20.242188 14.351562 20.242188 14.367188 20.242188 14.367188 C 20.242188 14.460938 20.226562 14.523438 20.226562 14.617188 C 20.226562 14.664062 20.226562 14.695312 20.242188 14.742188 C 20.273438 14.832031 20.320312 14.878906 20.320312 14.957031 C 20.320312 14.988281 20.320312 15.019531 20.304688 15.050781 C 20.273438 15.113281 20.257812 15.175781 20.257812 15.238281 C 20.257812 15.253906 20.257812 15.265625 20.257812 15.28125 C 20.273438 15.34375 20.304688 15.375 20.320312 15.4375 C 20.320312 15.453125 20.320312 15.453125 20.320312 15.46875 C 20.320312 15.5 20.304688 15.546875 20.304688 15.578125 C 20.304688 15.609375 20.320312 15.640625 20.351562 15.65625 C 20.460938 15.6875 20.554688 15.734375 20.644531 15.792969 C 20.691406 15.808594 20.738281 15.839844 20.769531 15.871094 C 20.847656 15.917969 20.925781 15.949219 21.003906 15.980469 C 21.078125 16.027344 21.171875 16.074219 21.25 16.136719 C 21.3125 16.183594 21.34375 16.273438 21.453125 16.273438 L 21.53125 16.242188 L 21.546875 16.242188 C 21.605469 16.242188 21.683594 16.121094 21.761719 16.121094 C 21.808594 16.121094 21.824219 16.152344 21.824219 16.199219 C 21.824219 16.242188 21.824219 16.242188 21.824219 16.273438 L 21.824219 16.289062 C 21.839844 16.445312 21.871094 16.601562 21.902344 16.753906 C 21.917969 16.769531 21.933594 16.785156 21.964844 16.785156 C 21.996094 16.785156 22.039062 16.769531 22.070312 16.769531 C 22.101562 16.753906 22.132812 16.753906 22.164062 16.753906 L 22.179688 16.753906 C 22.226562 16.769531 22.242188 16.847656 22.289062 16.847656 L 22.304688 16.847656 C 22.367188 16.832031 22.398438 16.753906 22.445312 16.753906 C 22.582031 16.832031 22.707031 16.941406 22.816406 17.050781 L 22.925781 17.25 C 22.800781 17.34375 22.660156 17.421875 22.523438 17.484375 C 22.429688 17.515625 22.320312 17.484375 22.210938 17.515625 C 22.132812 17.546875 22.085938 17.699219 22.011719 17.699219 C 21.996094 17.699219 21.996094 17.699219 21.980469 17.683594 C 21.855469 17.761719 21.746094 17.855469 21.636719 17.964844 C 21.636719 18.042969 21.636719 18.121094 21.667969 18.195312 C 21.683594 18.242188 21.699219 18.289062 21.714844 18.335938 C 21.730469 18.382812 21.730469 18.429688 21.730469 18.476562 C 21.730469 18.523438 21.730469 18.570312 21.714844 18.617188 C 21.652344 18.738281 21.621094 18.863281 21.589844 18.988281 C 21.589844 19.019531 21.589844 19.050781 21.605469 19.066406 C 21.636719 19.113281 21.792969 19.15625 21.839844 19.15625 C 21.839844 19.1875 21.855469 19.171875 21.855469 19.1875 C 21.855469 19.1875 21.855469 19.203125 21.855469 19.203125 C 21.855469 19.25 21.839844 19.265625 21.824219 19.265625 C 21.808594 19.265625 21.730469 19.21875 21.714844 19.21875 C 21.621094 19.21875 21.683594 19.359375 21.574219 19.40625 C 21.3125 19.515625 21.265625 19.839844 21.078125 19.964844 C 20.988281 20.027344 20.925781 20.089844 20.863281 20.164062 C 20.816406 20.226562 20.769531 20.273438 20.722656 20.320312 C 20.707031 20.335938 20.675781 20.351562 20.644531 20.367188 L 20.722656 20.523438 C 20.753906 20.585938 20.769531 20.644531 20.769531 20.722656 C 20.769531 20.769531 20.738281 20.816406 20.707031 20.847656 C 20.585938 20.925781 20.445312 20.972656 20.304688 20.972656 C 20.210938 20.972656 20.132812 21.003906 20.058594 21.050781 C 19.964844 21.09375 19.917969 21.265625 19.902344 21.375 C 19.871094 21.605469 19.855469 21.871094 19.683594 22.039062 C 19.5625 22.179688 19.46875 22.335938 19.40625 22.507812 C 19.359375 22.613281 19.34375 22.722656 19.203125 22.753906 C 19.019531 22.800781 18.847656 22.878906 18.707031 23.003906 C 18.289062 23.25 18.460938 23.496094 18.210938 23.777344 C 18.089844 23.917969 17.792969 24.132812 17.730469 24.289062 C 17.65625 24.503906 17.792969 24.503906 17.5 24.597656 C 17.25 24.675781 16.972656 24.628906 16.722656 24.707031 C 16.523438 24.769531 16.351562 24.925781 16.199219 24.925781 C 16.089844 24.925781 15.996094 24.863281 15.949219 24.769531 C 15.777344 24.535156 15.734375 24.398438 15.609375 24.398438 C 15.53125 24.398438 15.40625 24.460938 15.207031 24.597656 C 15.035156 24.785156 15.003906 25 14.878906 25.21875 C 14.800781 25.359375 14.679688 25.480469 14.539062 25.574219 C 14.277344 25.761719 14.183594 26.148438 14.167969 26.457031 C 14.167969 26.519531 14.460938 26.707031 14.539062 26.738281 C 14.757812 26.832031 15.128906 26.675781 15.175781 26.96875 C 15.191406 27.015625 15.191406 27.078125 15.191406 27.125 C 15.191406 27.3125 15.128906 27.480469 15.019531 27.621094 C 15.003906 27.636719 15.003906 27.667969 15.003906 27.699219 C 15.003906 27.808594 15.113281 27.929688 15.160156 28.007812 C 15.265625 28.179688 15.390625 28.320312 15.59375 28.320312 L 15.65625 28.320312 C 15.71875 28.304688 15.777344 28.242188 15.808594 28.242188 C 15.839844 28.242188 15.855469 28.257812 15.855469 28.335938 C 15.855469 28.488281 15.886719 28.628906 15.917969 28.785156 C 15.980469 28.90625 16.121094 29.015625 16.167969 29.140625 C 16.199219 29.234375 16.214844 29.324219 16.214844 29.417969 C 16.226562 29.558594 16.507812 29.761719 16.507812 29.929688 C 16.507812 29.976562 16.492188 30.023438 16.445312 30.039062 C 16.398438 30.070312 16.382812 30.117188 16.382812 30.164062 C 16.382812 30.210938 16.398438 30.257812 16.398438 30.285156 C 16.398438 30.316406 16.382812 30.378906 16.304688 30.441406 C 16.199219 30.519531 16.226562 30.550781 16.152344 30.644531 C 16.105469 30.691406 16.042969 30.722656 15.980469 30.722656 C 15.917969 30.722656 15.871094 30.707031 15.824219 30.660156 C 15.777344 30.597656 15.734375 30.394531 15.6875 30.394531 L 15.671875 30.394531 C 15.453125 30.457031 15.238281 30.550781 15.035156 30.644531 C 14.957031 30.753906 14.847656 30.8125 14.710938 30.8125 C 14.585938 30.8125 14.460938 30.765625 14.382812 30.675781 C 14.335938 30.628906 14.261719 30.597656 14.199219 30.597656 C 14.121094 30.597656 14.058594 30.613281 13.980469 30.628906 C 13.917969 30.644531 13.839844 30.660156 13.78125 30.660156 C 13.765625 30.660156 13.734375 30.660156 13.71875 30.644531 C 13.703125 30.644531 13.6875 30.644531 13.671875 30.644531 C 13.625 30.644531 13.59375 30.660156 13.546875 30.675781 C 13.515625 30.691406 13.46875 30.707031 13.4375 30.707031 C 13.40625 30.707031 13.390625 30.691406 13.359375 30.691406 C 13.34375 30.675781 13.316406 30.675781 13.300781 30.675781 C 13.285156 30.675781 13.253906 30.675781 13.238281 30.691406 C 13.222656 30.691406 13.207031 30.707031 13.191406 30.707031 C 13.160156 30.707031 13.144531 30.691406 13.128906 30.613281 C 13.082031 30.613281 13.082031 30.953125 13.050781 31.015625 C 13.003906 31.109375 12.957031 31.140625 12.910156 31.140625 C 12.878906 31.140625 12.847656 31.125 12.820312 31.125 C 12.773438 31.109375 12.742188 31.109375 12.695312 31.109375 C 12.679688 31.109375 12.664062 31.109375 12.632812 31.109375 C 12.351562 31.15625 12.277344 31.511719 12.214844 31.714844 C 12.230469 31.726562 12.246094 31.742188 12.277344 31.742188 C 12.308594 31.757812 12.339844 31.757812 12.367188 31.757812 C 12.445312 31.757812 12.507812 31.714844 12.523438 31.636719 C 12.539062 31.480469 12.648438 31.496094 12.695312 31.371094 C 12.710938 31.324219 12.710938 31.203125 12.789062 31.203125 L 12.804688 31.203125 C 12.804688 31.203125 12.804688 31.203125 12.804688 31.21875 C 12.804688 31.246094 12.773438 31.355469 12.773438 31.386719 L 12.789062 31.386719 C 12.878906 31.386719 13.019531 31.324219 13.113281 31.324219 C 13.019531 31.417969 12.925781 31.496094 12.820312 31.558594 C 12.742188 31.621094 12.695312 31.699219 12.679688 31.789062 C 12.679688 31.914062 12.820312 32.007812 12.925781 32.195312 C 12.925781 32.210938 12.925781 32.210938 12.925781 32.222656 C 12.925781 32.285156 12.835938 32.300781 12.835938 32.332031 C 12.835938 32.363281 12.835938 32.332031 12.847656 32.347656 C 12.988281 32.441406 13.113281 32.535156 13.238281 32.644531 C 13.484375 32.8125 13.765625 32.953125 14.074219 33.03125 C 14.183594 33.0625 14.289062 33.09375 14.414062 33.109375 C 14.445312 33.109375 14.476562 33.109375 14.492188 33.09375 C 14.648438 33.03125 14.710938 32.921875 14.894531 32.875 C 14.957031 32.84375 15.207031 32.84375 15.222656 32.734375 C 15.222656 32.691406 15.253906 32.472656 15.3125 32.472656 C 15.328125 32.472656 15.34375 32.488281 15.359375 32.503906 C 15.4375 32.597656 15.578125 32.644531 15.703125 32.628906 L 15.761719 32.628906 C 15.761719 32.660156 15.71875 32.703125 15.703125 32.734375 C 15.6875 32.78125 15.6875 32.828125 15.671875 32.890625 C 15.671875 32.921875 15.65625 32.921875 15.640625 32.921875 L 15.578125 32.921875 C 15.5625 32.921875 15.5625 32.921875 15.546875 32.921875 C 15.46875 32.953125 15.46875 33.09375 15.40625 33.15625 C 15.3125 33.246094 15.253906 33.480469 15.097656 33.480469 L 15.003906 33.480469 C 14.894531 33.480469 14.894531 33.542969 14.785156 33.621094 C 14.742188 33.664062 14.695312 33.679688 14.664062 33.679688 C 14.632812 33.679688 14.601562 33.664062 14.570312 33.652344 C 14.570312 33.652344 14.554688 33.652344 14.539062 33.652344 C 14.507812 33.652344 14.492188 33.679688 14.460938 33.726562 C 14.445312 33.773438 14.398438 33.789062 14.367188 33.804688 C 14.351562 33.804688 14.335938 33.804688 14.320312 33.789062 C 14.304688 33.773438 14.277344 33.773438 14.246094 33.773438 C 14.136719 33.773438 14.058594 33.851562 13.933594 33.882812 C 13.886719 33.914062 13.839844 33.929688 13.78125 33.929688 C 13.75 33.929688 13.734375 33.914062 13.703125 33.898438 C 13.6875 33.882812 13.6875 33.867188 13.6875 33.851562 C 13.6875 33.804688 13.734375 33.742188 13.734375 33.679688 C 13.71875 33.679688 13.703125 33.726562 13.671875 33.726562 C 13.65625 33.726562 13.640625 33.726562 13.625 33.726562 C 13.59375 33.726562 13.546875 33.726562 13.515625 33.710938 C 13.515625 33.695312 13.515625 33.695312 13.515625 33.679688 C 13.515625 33.652344 13.515625 33.605469 13.515625 33.589844 C 13.46875 33.636719 13.4375 33.679688 13.40625 33.726562 C 13.390625 33.742188 13.390625 33.773438 13.390625 33.789062 C 13.390625 33.898438 13.53125 34.070312 13.578125 34.148438 C 13.703125 34.363281 13.902344 34.503906 14.058594 34.671875 L 15.640625 36.144531 C 15.777344 36.300781 15.980469 36.394531 16.199219 36.394531 C 16.492188 36.394531 16.769531 36.207031 17.144531 36.070312 C 17.21875 36.007812 17.25 35.945312 17.34375 35.945312 C 17.359375 35.945312 17.375 35.945312 17.390625 35.945312 L 17.40625 35.945312 C 17.546875 35.945312 17.761719 35.757812 17.886719 35.726562 C 18.011719 35.695312 18.058594 35.664062 18.058594 35.574219 C 18.058594 35.558594 18.058594 35.542969 18.042969 35.511719 C 18.105469 35.371094 18.179688 35.230469 18.289062 35.109375 C 18.320312 35.0625 18.351562 34.984375 18.351562 34.921875 C 18.335938 34.8125 18.304688 34.703125 18.257812 34.613281 C 18.304688 34.394531 18.367188 34.191406 18.460938 33.992188 C 18.476562 33.976562 18.476562 33.945312 18.476562 33.914062 C 18.476562 33.851562 18.445312 33.804688 18.445312 33.742188 C 18.445312 33.710938 18.445312 33.695312 18.460938 33.664062 C 18.476562 33.652344 18.476562 33.636719 18.476562 33.636719 C 18.476562 33.636719 18.492188 33.710938 18.507812 33.789062 C 18.523438 33.867188 18.539062 33.945312 18.601562 33.945312 L 18.632812 33.945312 C 18.707031 33.914062 18.769531 33.835938 18.847656 33.835938 C 18.878906 33.835938 18.894531 33.835938 18.925781 33.851562 C 18.957031 33.867188 18.988281 33.867188 19.019531 33.867188 C 19.066406 33.867188 19.113281 33.851562 19.15625 33.851562 L 19.1875 33.851562 C 19.1875 33.851562 19.171875 33.851562 19.171875 33.867188 L 19.140625 33.914062 C 19.066406 33.976562 18.941406 33.914062 18.847656 33.992188 C 18.785156 34.085938 18.738281 34.207031 18.738281 34.316406 C 18.738281 34.363281 18.753906 34.394531 18.785156 34.394531 L 18.800781 34.394531 C 18.878906 34.363281 18.957031 34.316406 19.035156 34.285156 C 19.019531 34.332031 19.003906 34.363281 18.972656 34.410156 C 18.925781 34.503906 18.941406 34.582031 18.878906 34.671875 C 18.847656 34.703125 18.785156 34.734375 18.785156 34.75 C 18.785156 34.765625 18.785156 34.75 18.800781 34.75 L 18.894531 34.75 C 18.988281 34.75 19.082031 34.78125 19.171875 34.8125 C 19.171875 34.828125 19.082031 34.84375 19.066406 34.859375 C 19.019531 34.890625 19.019531 34.953125 18.988281 35.015625 C 18.988281 35.03125 19.019531 35.078125 19.019531 35.109375 C 19.019531 35.109375 19.019531 35.121094 19.019531 35.121094 C 18.957031 35.167969 18.925781 35.183594 18.925781 35.214844 C 18.925781 35.246094 18.941406 35.261719 18.972656 35.308594 C 19.003906 35.355469 19.035156 35.386719 19.035156 35.402344 C 19.035156 35.417969 19.019531 35.433594 18.972656 35.464844 C 18.925781 35.496094 18.925781 35.527344 18.925781 35.558594 C 18.925781 35.632812 19.128906 35.617188 19.171875 35.710938 C 19.1875 35.757812 19.21875 35.804688 19.25 35.851562 C 19.265625 35.867188 19.265625 35.882812 19.265625 35.914062 C 19.265625 35.960938 19.25 35.992188 19.25 36.023438 C 19.25 36.054688 19.265625 36.085938 19.3125 36.097656 C 19.328125 36.113281 19.328125 36.128906 19.328125 36.160156 C 19.328125 36.253906 19.25 36.441406 19.25 36.535156 C 19.234375 36.71875 19.171875 36.90625 19.097656 37.074219 C 19.035156 37.183594 18.988281 37.308594 18.972656 37.433594 L 18.972656 37.464844 C 18.972656 37.554688 18.988281 37.648438 19.003906 37.742188 C 19.019531 37.867188 19.019531 37.976562 19.035156 38.097656 C 19.050781 38.191406 19.082031 38.222656 19.128906 38.222656 C 19.171875 38.222656 19.21875 38.207031 19.265625 38.175781 L 19.296875 38.222656 C 19.28125 38.238281 19.234375 38.253906 19.21875 38.269531 C 19.203125 38.285156 19.097656 38.316406 19.097656 38.363281 C 19.097656 38.378906 19.082031 38.394531 19.082031 38.410156 C 19.082031 38.425781 19.082031 38.425781 19.082031 38.441406 C 19.097656 38.488281 19.1875 38.457031 19.21875 38.472656 C 19.234375 38.472656 19.296875 38.515625 19.296875 38.53125 C 19.296875 38.546875 19.296875 38.546875 19.265625 38.546875 C 19.15625 38.546875 19.128906 38.5625 19.128906 38.609375 C 19.128906 38.640625 19.140625 38.671875 19.140625 38.703125 C 19.140625 38.71875 19.140625 38.734375 19.140625 38.75 C 19.140625 38.8125 19.128906 38.859375 19.128906 38.921875 C 19.128906 38.953125 19.128906 38.984375 19.140625 38.996094 C 19.15625 39.042969 19.1875 39.058594 19.203125 39.058594 C 19.21875 39.058594 19.28125 38.996094 19.3125 38.9375 C 19.34375 38.875 19.375 38.8125 19.375 38.8125 C 19.375 38.8125 19.390625 38.828125 19.390625 38.84375 C 19.390625 38.996094 19.53125 38.953125 19.53125 38.96875 C 19.53125 38.984375 19.515625 38.984375 19.484375 39.011719 C 19.453125 39.042969 19.3125 39.089844 19.3125 39.152344 C 19.3125 39.183594 19.328125 39.199219 19.34375 39.214844 C 19.359375 39.230469 19.421875 39.292969 19.421875 39.324219 C 19.421875 39.355469 19.40625 39.355469 19.375 39.355469 L 19.25 39.355469 C 19.21875 39.355469 19.203125 39.355469 19.203125 39.386719 C 19.21875 39.417969 19.21875 39.464844 19.25 39.492188 C 19.265625 39.554688 19.296875 39.601562 19.3125 39.664062 C 19.328125 39.710938 19.390625 39.726562 19.40625 39.757812 C 19.3125 39.757812 19.28125 39.789062 19.28125 39.835938 C 19.296875 39.914062 19.328125 39.988281 19.359375 40.050781 C 19.375 40.082031 19.453125 40.128906 19.453125 40.160156 C 19.453125 40.191406 19.453125 40.175781 19.4375 40.175781 C 19.390625 40.191406 19.359375 40.222656 19.375 40.269531 C 19.375 40.300781 19.375 40.347656 19.390625 40.378906 C 19.421875 40.453125 19.453125 40.546875 19.515625 40.609375 C 19.621094 40.78125 19.652344 41.214844 19.667969 41.414062 C 19.683594 41.601562 19.714844 41.773438 19.761719 41.941406 C 19.902344 42.59375 20.132812 43.539062 20.132812 43.539062 C 20.148438 43.617188 20.179688 43.695312 20.226562 43.757812 C 20.320312 43.835938 20.382812 43.941406 20.429688 44.050781 C 20.476562 44.191406 20.539062 44.328125 20.613281 44.453125 C 20.675781 44.53125 20.769531 44.546875 20.769531 44.5625 C 20.769531 44.578125 20.738281 44.578125 20.644531 44.609375 C 20.644531 44.625 20.832031 44.6875 20.832031 44.78125 C 20.832031 44.824219 20.832031 44.871094 20.832031 44.917969 C 20.816406 45.011719 20.863281 45.121094 20.941406 45.183594 C 21.003906 45.230469 20.972656 45.320312 21.035156 45.367188 C 21.050781 45.382812 21.078125 45.382812 21.09375 45.382812 C 21.109375 45.382812 21.109375 45.382812 21.125 45.382812 C 21.140625 45.367188 21.171875 45.367188 21.1875 45.367188 C 21.1875 45.367188 21.203125 45.367188 21.203125 45.367188 C 21.15625 45.382812 21.125 45.429688 21.125 45.492188 C 21.125 45.539062 21.15625 45.585938 21.203125 45.617188 C 21.40625 45.710938 21.40625 45.832031 21.5 46.003906 C 21.53125 46.050781 21.546875 46.113281 21.53125 46.160156 C 21.53125 46.191406 21.53125 46.238281 21.53125 46.265625 C 21.53125 46.390625 21.621094 46.5 21.621094 46.609375 C 21.699219 46.777344 21.792969 46.933594 21.886719 47.089844 C 21.996094 47.304688 21.980469 47.664062 22.039062 47.894531 L 22.242188 48.746094 C 22.382812 48.949219 22.492188 49.164062 22.566406 49.398438 C 22.597656 49.507812 22.707031 49.738281 22.816406 49.785156 C 23.003906 49.863281 22.894531 49.785156 22.988281 49.988281 C 23.078125 50.1875 23.25 50.265625 23.328125 50.46875 C 23.40625 50.667969 23.574219 50.855469 23.589844 51.058594 C 23.652344 51.164062 23.683594 51.164062 23.699219 51.289062 C 23.714844 51.335938 23.730469 51.398438 23.746094 51.445312 C 23.839844 51.738281 24.085938 52.3125 24.179688 52.515625 C 24.320312 52.761719 24.429688 53.027344 24.535156 53.289062 C 24.550781 53.367188 24.566406 53.460938 24.582031 53.535156 C 24.582031 53.550781 24.566406 53.566406 24.535156 53.566406 C 24.488281 53.566406 24.445312 53.535156 24.445312 53.492188 C 24.445312 53.476562 24.445312 53.445312 24.460938 53.429688 C 24.460938 53.414062 24.460938 53.414062 24.460938 53.398438 C 24.460938 53.320312 24.382812 53.257812 24.382812 53.195312 C 24.367188 53.195312 24.367188 53.210938 24.367188 53.242188 C 24.367188 53.320312 24.382812 53.398438 24.382812 53.460938 C 24.414062 53.644531 24.445312 53.894531 24.566406 54.046875 C 24.628906 54.109375 24.691406 54.375 24.738281 54.375 C 24.769531 54.359375 24.800781 54.359375 24.832031 54.359375 C 24.863281 54.359375 24.878906 54.359375 24.878906 54.375 C 24.878906 54.390625 24.878906 54.390625 24.847656 54.421875 C 24.816406 54.453125 24.722656 54.453125 24.722656 54.496094 C 24.722656 54.511719 24.722656 54.511719 24.738281 54.527344 C 24.800781 54.621094 24.910156 54.652344 24.96875 54.761719 C 25.046875 54.902344 25.15625 55.039062 25.265625 55.148438 C 25.421875 55.382812 25.636719 55.566406 25.902344 55.691406 C 25.960938 55.722656 26.039062 55.738281 26.101562 55.738281 C 26.179688 55.738281 26.257812 55.707031 26.320312 55.644531 C 26.382812 55.613281 26.441406 55.597656 26.503906 55.582031 C 26.738281 55.472656 26.9375 55.304688 27.0625 55.070312 C 27.109375 54.902344 27.09375 54.527344 27.1875 54.40625 C 27.28125 54.328125 27.371094 54.265625 27.480469 54.21875 L 28.320312 53.988281 C 28.363281 53.972656 28.394531 53.972656 28.441406 53.972656 C 28.597656 53.988281 28.738281 54.015625 28.875 54.0625 C 28.84375 53.957031 28.769531 53.941406 28.691406 53.941406 L 28.519531 53.941406 C 28.378906 53.941406 28.273438 53.816406 28.273438 53.660156 C 28.273438 53.523438 28.335938 53.382812 28.425781 53.273438 C 28.535156 53.148438 28.628906 53.027344 28.707031 52.886719 C 28.722656 52.855469 28.738281 52.808594 28.738281 52.761719 C 28.738281 52.714844 28.738281 52.683594 28.738281 52.636719 C 28.738281 52.574219 28.769531 52.5 28.828125 52.46875 L 28.84375 52.46875 C 28.90625 52.46875 28.96875 52.4375 29.015625 52.390625 C 29.078125 52.34375 29.140625 52.328125 29.203125 52.3125 C 29.234375 52.3125 29.265625 52.3125 29.296875 52.328125 C 29.386719 52.34375 29.480469 52.375 29.574219 52.40625 C 29.589844 52.421875 29.621094 52.4375 29.652344 52.4375 C 29.667969 52.4375 29.683594 52.421875 29.683594 52.40625 C 29.683594 52.390625 29.683594 52.359375 29.667969 52.34375 C 29.652344 52.296875 29.636719 52.25 29.652344 52.1875 C 29.652344 52.078125 29.667969 51.925781 29.667969 51.863281 L 29.667969 51.570312 C 29.636719 51.570312 29.542969 51.628906 29.511719 51.628906 C 29.511719 51.628906 29.496094 51.628906 29.496094 51.628906 C 29.496094 51.613281 29.574219 51.492188 29.574219 51.460938 C 29.605469 51.382812 29.636719 51.304688 29.636719 51.210938 C 29.636719 51.164062 29.621094 51.132812 29.589844 51.101562 C 29.574219 51.089844 29.574219 51.074219 29.574219 51.074219 C 29.574219 51.027344 29.605469 50.964844 29.605469 50.933594 C 29.605469 50.855469 29.558594 50.777344 29.542969 50.683594 C 29.527344 50.59375 29.464844 50.515625 29.464844 50.40625 C 29.464844 50.171875 29.652344 49.800781 29.746094 49.585938 C 29.804688 49.460938 29.882812 49.335938 29.976562 49.242188 C 30.054688 49.121094 30.117188 48.980469 30.164062 48.839844 C 30.285156 48.609375 30.242188 48.34375 30.300781 48.097656 C 30.316406 48.019531 30.332031 47.957031 30.332031 47.878906 C 30.332031 47.816406 30.316406 47.769531 30.285156 47.722656 C 30.179688 47.554688 29.992188 47.664062 29.992188 47.398438 C 29.992188 47.382812 30.007812 47.226562 30.054688 47.226562 C 30.054688 47.226562 30.070312 47.226562 30.070312 47.242188 C 30.070312 47.257812 30.148438 47.382812 30.195312 47.382812 C 30.195312 47.335938 30.179688 47.273438 30.179688 47.214844 C 30.179688 47.183594 30.195312 47.152344 30.210938 47.121094 C 30.148438 47.027344 30.101562 46.917969 30.054688 46.808594 C 30.070312 46.777344 30.070312 46.746094 30.070312 46.71875 C 30.070312 46.640625 30.054688 46.546875 30.054688 46.46875 C 30.054688 46.328125 30.164062 46.265625 30.164062 46.128906 C 30.164062 46.097656 30.164062 46.066406 30.148438 46.035156 C 30.039062 45.773438 29.960938 45.476562 29.945312 45.199219 C 29.945312 44.980469 30.007812 44.765625 30.117188 44.578125 C 30.210938 44.46875 30.210938 44.160156 30.363281 44.097656 C 30.550781 44.003906 30.753906 43.941406 30.96875 43.910156 C 31.03125 43.894531 31.09375 43.925781 31.125 43.972656 C 31.171875 44.050781 31.203125 44.097656 31.21875 44.097656 C 31.234375 44.097656 31.261719 44.050781 31.308594 43.988281 C 31.355469 43.925781 31.496094 43.910156 31.558594 43.835938 C 31.652344 43.664062 31.683594 43.414062 31.773438 43.230469 C 31.820312 43.136719 31.851562 43.105469 31.867188 43.105469 C 31.882812 43.105469 31.945312 43.152344 32.023438 43.152344 C 32.101562 43.152344 32.132812 43.105469 32.195312 43.089844 L 32.210938 43.089844 C 32.222656 43.089844 32.253906 43.105469 32.269531 43.105469 C 32.285156 43.121094 32.316406 43.121094 32.332031 43.121094 C 32.347656 43.121094 32.363281 43.121094 32.363281 43.121094 C 32.410156 43.105469 32.441406 43.105469 32.488281 43.105469 L 32.597656 43.105469 C 32.644531 43.105469 32.691406 43.105469 32.734375 43.074219 C 32.84375 42.996094 32.9375 42.886719 33.015625 42.78125 C 33.078125 42.765625 33.277344 42.71875 33.292969 42.640625 C 33.292969 42.625 33.292969 42.625 33.292969 42.609375 C 33.292969 42.53125 33.230469 42.453125 33.214844 42.378906 C 33.214844 42.378906 33.214844 42.363281 33.214844 42.363281 C 33.261719 42.191406 33.355469 42.019531 33.496094 41.898438 L 34.425781 41.355469 C 34.671875 41.214844 34.875 41.011719 35.015625 40.765625 C 35.152344 40.671875 35.214844 40.53125 35.371094 40.453125 L 36.054688 40.113281 C 36.191406 40.035156 36.175781 39.820312 36.253906 39.773438 C 36.332031 39.726562 36.347656 39.757812 36.441406 39.632812 C 36.441406 39.632812 36.890625 38.984375 37.105469 38.71875 C 37.136719 38.6875 37.167969 38.65625 37.183594 38.640625 C 37.308594 38.59375 37.726562 38.300781 37.804688 38.128906 L 37.804688 38.113281 L 37.789062 38.128906 C 37.742188 38.175781 37.617188 38.285156 37.554688 38.285156 C 37.539062 38.285156 37.527344 38.269531 37.527344 38.238281 C 37.617188 38.050781 37.726562 37.898438 37.867188 37.757812 C 37.960938 37.695312 38.023438 37.664062 38.066406 37.664062 C 38.113281 37.664062 38.144531 37.695312 38.191406 37.789062 C 38.191406 37.820312 37.882812 38.066406 37.882812 38.097656 C 37.898438 38.097656 37.914062 38.082031 37.945312 38.066406 C 38.160156 37.960938 38.394531 37.882812 38.640625 37.804688 C 38.828125 37.726562 39.042969 37.695312 39.246094 37.632812 C 39.324219 37.601562 39.355469 37.554688 39.355469 37.527344 C 39.355469 37.511719 39.355469 37.496094 39.339844 37.480469 C 39.355469 37.480469 39.371094 37.496094 39.386719 37.496094 C 39.523438 37.496094 39.617188 37.261719 39.679688 37.183594 C 39.742188 37.105469 39.820312 37.121094 39.820312 37.03125 C 39.835938 36.953125 39.867188 36.890625 39.914062 36.828125 C 39.960938 36.765625 40.003906 36.703125 40.050781 36.640625 C 40.144531 36.566406 40.300781 36.550781 40.300781 36.425781 C 40.300781 36.191406 40.160156 36.054688 40.128906 35.835938 C 40.113281 35.773438 40.113281 35.695312 40.113281 35.632812 C 40.113281 35.511719 40.175781 35.417969 40.285156 35.371094 C 40.410156 35.292969 40.484375 35.167969 40.609375 35.109375 L 40.625 35.109375 C 40.75 35.0625 41.027344 34.984375 41.230469 34.9375 L 41.339844 34.90625 L 41.445312 34.875 C 41.570312 34.828125 41.632812 34.703125 41.742188 34.628906 L 41.957031 34.410156 C 41.957031 34.394531 41.972656 34.394531 41.988281 34.394531 C 42.066406 34.394531 42.160156 34.703125 42.191406 34.78125 C 42.191406 34.8125 42.207031 34.96875 42.269531 34.96875 C 42.285156 34.96875 42.285156 34.96875 42.300781 34.953125 C 42.40625 34.84375 42.453125 34.796875 42.46875 34.796875 C 42.484375 34.796875 42.515625 34.859375 42.609375 34.9375 C 42.671875 34.96875 42.84375 34.953125 42.933594 34.984375 C 42.949219 34.984375 42.964844 35 42.980469 34.984375 C 43.042969 34.984375 43.058594 34.921875 43.074219 34.859375 C 43.089844 34.796875 43.089844 34.734375 43.136719 34.734375 C 43.152344 34.734375 43.152344 34.734375 43.167969 34.734375 C 43.277344 34.796875 43.398438 34.828125 43.523438 34.859375 L 43.398438 34.566406 L 43.429688 34.566406 C 43.429688 34.519531 43.398438 34.457031 43.398438 34.394531 C 43.460938 34.378906 43.492188 34.347656 43.492188 34.300781 C 43.492188 34.269531 43.476562 34.222656 43.460938 34.191406 C 43.445312 34.175781 43.445312 34.160156 43.445312 34.132812 C 43.445312 34.101562 43.476562 34.085938 43.476562 34.023438 C 43.476562 33.898438 43.382812 33.789062 43.339844 33.679688 C 43.324219 33.621094 43.339844 33.542969 43.308594 33.480469 C 43.277344 33.417969 43.261719 33.324219 43.246094 33.246094 C 43.277344 33.171875 43.292969 33.09375 43.292969 33.015625 C 43.308594 32.90625 43.261719 32.796875 43.199219 32.71875 C 43.167969 32.703125 43.152344 32.675781 43.152344 32.644531 C 43.152344 32.566406 43.261719 32.488281 43.277344 32.410156 C 43.277344 32.394531 43.292969 32.378906 43.292969 32.363281 C 43.292969 32.285156 43.183594 32.285156 43.105469 32.253906 C 43.074219 32.238281 42.902344 32.222656 42.902344 32.164062 C 42.902344 32.148438 42.902344 32.148438 42.917969 32.132812 C 42.964844 32.085938 42.996094 32.007812 43.011719 31.945312 C 43.011719 31.882812 42.980469 31.835938 42.933594 31.804688 C 42.886719 31.773438 42.84375 31.773438 42.796875 31.714844 C 42.75 31.605469 42.71875 31.496094 42.71875 31.371094 C 42.765625 31.324219 42.78125 31.277344 42.84375 31.246094 C 42.917969 31.234375 42.980469 31.15625 42.964844 31.0625 C 42.964844 30.984375 42.933594 30.875 42.933594 30.796875 C 42.933594 30.78125 42.933594 30.78125 42.933594 30.765625 C 42.933594 30.753906 42.933594 30.722656 42.933594 30.707031 C 42.933594 30.628906 42.917969 30.535156 42.84375 30.535156 C 42.765625 30.535156 42.6875 30.519531 42.609375 30.503906 L 42.46875 30.503906 C 42.453125 30.472656 42.421875 30.425781 42.40625 30.394531 C 42.363281 30.285156 42.222656 30.257812 42.113281 30.210938 C 42.066406 30.195312 42.035156 30.164062 42.003906 30.132812 C 41.972656 30.054688 41.941406 29.960938 41.925781 29.867188 L 42.050781 29.730469 C 42.097656 29.667969 42.128906 29.589844 42.160156 29.511719 L 42.191406 29.511719 C 42.238281 29.511719 42.269531 29.527344 42.285156 29.605469 C 42.347656 29.605469 42.484375 29.417969 42.515625 29.371094 C 42.5625 29.265625 42.5 29.15625 42.609375 29.09375 C 42.671875 29.078125 42.71875 29.078125 42.78125 29.078125 C 42.886719 29.078125 42.980469 29.078125 43.089844 29.109375 C 43.121094 29.125 43.152344 29.15625 43.167969 29.15625 C 43.183594 29.15625 43.199219 29.140625 43.214844 29.109375 C 43.230469 29.078125 43.339844 29 43.339844 28.96875 C 43.152344 28.96875 43.136719 28.875 43.136719 28.785156 L 43.136719 28.753906 C 43.136719 28.722656 43.136719 28.675781 43.121094 28.644531 C 43.105469 28.613281 43.089844 28.613281 43.058594 28.613281 C 43.042969 28.613281 43.011719 28.613281 42.996094 28.613281 L 42.917969 28.613281 C 42.871094 28.613281 42.84375 28.597656 42.8125 28.582031 C 42.78125 28.550781 42.765625 28.488281 42.71875 28.472656 C 42.59375 28.441406 42.59375 28.472656 42.53125 28.347656 C 42.484375 28.273438 42.332031 28.117188 42.238281 28.117188 C 42.207031 28.117188 42.160156 28.132812 42.128906 28.132812 C 42.097656 28.132812 42.082031 28.132812 42.066406 28.117188 C 41.988281 28.039062 42.035156 27.976562 41.988281 27.898438 C 42.175781 27.777344 42.066406 27.605469 42.269531 27.511719 C 42.378906 27.433594 42.46875 27.34375 42.546875 27.25 C 42.5625 27.234375 42.5625 27.203125 42.5625 27.1875 C 42.5625 27.09375 42.40625 27.078125 42.40625 27 C 42.40625 26.953125 42.4375 26.921875 42.46875 26.890625 C 42.484375 26.878906 42.5 26.863281 42.515625 26.863281 C 42.5625 26.863281 42.578125 26.9375 42.640625 26.984375 C 42.703125 27.03125 42.8125 27.078125 42.828125 27.15625 C 42.886719 27.171875 42.796875 27.25 42.996094 27.25 C 43.042969 27.25 43.246094 27.402344 43.339844 27.402344 C 43.367188 27.402344 43.398438 27.386719 43.398438 27.34375 C 43.398438 27.265625 43.292969 27.171875 43.292969 27.125 C 43.292969 27.109375 43.308594 27.09375 43.367188 27.09375 L 43.382812 27.09375 C 43.445312 27.09375 43.460938 27.125 43.460938 27.15625 C 43.460938 27.1875 43.445312 27.25 43.445312 27.296875 C 43.445312 27.3125 43.445312 27.328125 43.445312 27.34375 C 43.523438 27.527344 43.941406 27.824219 44.175781 27.824219 L 44.207031 27.824219 C 44.207031 27.777344 44.300781 27.449219 44.359375 27.449219 C 44.421875 27.449219 44.375 27.558594 44.390625 27.574219 C 44.5 27.761719 44.625 27.761719 44.625 27.929688 C 44.625 27.960938 44.625 28.007812 44.609375 28.039062 C 44.59375 28.085938 44.59375 28.132812 44.59375 28.179688 C 44.59375 28.273438 44.609375 28.347656 44.609375 28.425781 C 44.609375 28.535156 44.578125 28.644531 44.515625 28.738281 L 44.515625 28.753906 C 44.515625 28.953125 44.765625 28.921875 44.917969 29 C 45.121094 29.09375 45.335938 29.15625 45.554688 29.140625 C 45.632812 29.140625 45.695312 29.140625 45.773438 29.125 L 45.800781 29.125 C 45.847656 29.125 45.910156 29.140625 45.957031 29.140625 C 46.003906 29.15625 46.066406 29.15625 46.113281 29.15625 L 46.160156 29.15625 C 46.222656 29.140625 46.28125 29.09375 46.34375 29.09375 C 46.375 29.09375 46.390625 29.09375 46.421875 29.09375 L 46.609375 29.09375 C 46.640625 29.09375 46.65625 29.09375 46.6875 29.078125 C 46.71875 29.078125 46.734375 29.0625 46.761719 29.0625 C 46.792969 29.0625 46.824219 29.078125 46.855469 29.09375 C 46.964844 29.15625 47.074219 29.1875 47.199219 29.1875 C 47.398438 29.171875 47.601562 29.140625 47.800781 29.09375 L 47.816406 29.09375 C 47.988281 29.09375 48.515625 29.339844 48.515625 29.496094 C 48.515625 29.542969 48.46875 29.589844 48.328125 29.621094 C 48.25 29.636719 48.191406 29.605469 48.191406 29.683594 C 48.191406 29.699219 48.191406 29.714844 48.191406 29.746094 C 48.191406 29.761719 48.191406 29.761719 48.191406 29.777344 C 48.191406 29.882812 48.144531 29.992188 48.066406 30.085938 C 48.003906 30.132812 47.988281 30.347656 47.972656 30.425781 C 47.941406 30.425781 47.878906 30.378906 47.832031 30.378906 C 47.785156 30.378906 47.800781 30.394531 47.800781 30.425781 C 47.800781 30.441406 47.800781 30.472656 47.800781 30.488281 C 47.800781 30.503906 47.800781 30.519531 47.785156 30.519531 L 47.769531 30.519531 C 47.753906 30.519531 47.738281 30.503906 47.738281 30.488281 L 47.722656 30.488281 C 47.722656 30.503906 47.679688 30.796875 47.617188 30.796875 C 47.601562 30.796875 47.601562 30.78125 47.585938 30.753906 C 47.570312 30.722656 47.554688 30.628906 47.492188 30.628906 L 47.476562 30.628906 C 47.476562 30.628906 47.460938 30.644531 47.460938 30.644531 C 47.460938 30.644531 47.476562 30.722656 47.476562 30.765625 C 47.476562 30.8125 47.476562 30.796875 47.445312 30.796875 C 47.429688 30.796875 47.414062 30.796875 47.398438 30.78125 C 47.367188 30.765625 47.335938 30.675781 47.320312 30.675781 C 47.304688 30.675781 47.304688 30.691406 47.289062 30.707031 C 47.242188 30.78125 47.273438 30.890625 47.152344 30.890625 C 47.074219 30.890625 46.996094 30.859375 46.917969 30.859375 C 46.902344 30.859375 46.886719 30.859375 46.871094 30.859375 L 46.871094 30.875 C 46.871094 30.90625 46.886719 30.9375 46.886719 30.953125 C 46.886719 30.96875 46.886719 30.984375 46.855469 31 C 46.761719 31.046875 46.65625 31.015625 46.65625 31.171875 C 46.65625 31.203125 46.65625 31.246094 46.65625 31.292969 C 46.65625 31.339844 46.640625 31.386719 46.609375 31.417969 C 46.53125 31.464844 46.5 31.511719 46.5 31.574219 C 46.5 31.636719 46.53125 31.699219 46.578125 31.742188 C 46.671875 31.867188 46.71875 32.023438 46.703125 32.179688 C 46.746094 32.269531 46.761719 32.503906 46.824219 32.566406 L 46.839844 32.566406 C 46.871094 32.566406 46.886719 32.457031 46.886719 32.394531 C 46.886719 32.394531 46.886719 32.378906 46.886719 32.378906 C 46.886719 32.363281 46.871094 32.332031 46.871094 32.316406 C 46.871094 32.285156 46.886719 32.238281 46.917969 32.238281 L 46.949219 32.238281 C 47.011719 32.347656 47.105469 32.675781 47.242188 32.675781 L 47.257812 32.675781 C 47.492188 32.628906 47.492188 32.519531 47.507812 32.316406 C 47.523438 32.117188 47.507812 32.148438 47.648438 32.023438 C 47.710938 31.976562 47.738281 31.914062 47.738281 31.835938 C 47.738281 31.773438 47.722656 31.699219 47.710938 31.636719 C 47.710938 31.605469 47.710938 31.574219 47.722656 31.542969 C 47.722656 31.527344 47.738281 31.527344 47.738281 31.527344 C 47.738281 31.527344 47.769531 31.558594 47.785156 31.589844 C 47.800781 31.621094 47.832031 31.652344 47.847656 31.652344 C 47.894531 31.652344 47.925781 31.542969 48.003906 31.542969 L 48.019531 31.542969 C 48.019531 31.574219 48.035156 31.589844 48.050781 31.589844 C 48.066406 31.589844 48.128906 31.527344 48.160156 31.527344 C 48.175781 31.558594 48.175781 31.574219 48.175781 31.605469 C 48.175781 31.636719 48.175781 31.667969 48.175781 31.714844 C 48.175781 31.726562 48.175781 31.757812 48.175781 31.773438 C 48.203125 31.945312 48.28125 32.007812 48.28125 32.132812 C 48.28125 32.179688 48.265625 32.222656 48.265625 32.269531 C 48.25 32.316406 48.25 32.347656 48.25 32.394531 C 48.265625 32.613281 48.328125 32.8125 48.453125 32.984375 C 48.5 33.109375 48.515625 33.230469 48.53125 33.355469 L 48.671875 33.867188 L 48.699219 34.300781 C 48.839844 34.300781 48.839844 34.160156 48.871094 34.054688 C 48.871094 34.054688 49.011719 34.175781 49.027344 34.191406 C 49.121094 34.269531 49.105469 34.332031 49.136719 34.332031 C 49.164062 34.332031 49.179688 34.300781 49.257812 34.238281 C 49.335938 34.175781 49.320312 34.007812 49.445312 33.976562 C 49.539062 33.945312 49.601562 33.851562 49.585938 33.742188 C 49.585938 33.664062 49.570312 33.589844 49.523438 33.527344 C 49.460938 33.449219 49.445312 33.339844 49.445312 33.246094 C 49.445312 33.125 49.476562 33 49.507812 32.875 C 49.492188 32.8125 49.492188 32.75 49.492188 32.691406 C 49.492188 32.644531 49.492188 32.597656 49.523438 32.597656 L 49.539062 32.597656 C 49.601562 32.597656 49.585938 32.691406 49.648438 32.703125 C 49.660156 32.703125 49.675781 32.71875 49.691406 32.71875 C 49.816406 32.71875 49.832031 32.457031 49.832031 32.363281 L 49.832031 32.332031 C 49.832031 32.117188 49.941406 31.882812 49.941406 31.652344 C 49.941406 31.605469 49.941406 31.542969 49.925781 31.496094 L 49.847656 31.203125 C 49.832031 31.140625 49.816406 31.09375 49.816406 31.03125 C 49.816406 31 49.832031 30.96875 49.847656 30.953125 L 49.863281 30.953125 C 49.925781 30.953125 49.972656 31.109375 49.988281 31.140625 C 50.003906 31.171875 50.035156 31.1875 50.066406 31.1875 C 50.113281 31.1875 50.140625 31.171875 50.1875 31.15625 C 50.234375 31.140625 50.28125 31.125 50.328125 31.125 L 50.359375 31.125 C 50.421875 31.140625 50.484375 31.203125 50.546875 31.203125 C 50.5625 31.203125 50.5625 31.203125 50.578125 31.203125 C 50.59375 31.1875 50.621094 31.1875 50.652344 31.1875 C 50.761719 31.1875 50.824219 31.292969 50.917969 31.355469 C 50.933594 31.371094 50.949219 31.371094 50.964844 31.371094 C 51.089844 31.371094 51.148438 31 51.179688 30.90625 C 51.273438 30.722656 51.289062 30.519531 51.414062 30.347656 C 51.585938 30.117188 51.800781 29.835938 51.863281 29.558594 C 51.878906 29.496094 51.894531 29.433594 51.894531 29.371094 C 51.894531 29.308594 51.878906 29.265625 51.816406 29.234375 C 51.722656 29.1875 51.628906 29.140625 51.628906 29.0625 C 51.628906 29.015625 51.644531 28.984375 51.660156 28.9375 C 51.707031 28.84375 51.738281 28.707031 51.832031 28.660156 C 51.847656 28.644531 51.878906 28.644531 51.894531 28.644531 L 51.941406 28.644531 C 51.957031 28.644531 51.988281 28.628906 52.019531 28.582031 C 52.109375 28.457031 52.21875 28.335938 52.34375 28.226562 C 52.359375 28.210938 52.359375 28.195312 52.359375 28.179688 C 52.359375 28.117188 52.3125 28.023438 52.3125 27.960938 C 52.3125 27.929688 52.328125 27.914062 52.34375 27.898438 C 52.453125 27.808594 52.484375 27.792969 52.484375 27.746094 C 52.484375 27.699219 52.46875 27.636719 52.453125 27.589844 C 52.453125 27.558594 52.453125 27.527344 52.453125 27.511719 L 52.453125 27.480469 C 52.453125 27.449219 52.453125 27.402344 52.4375 27.371094 C 52.40625 27.296875 52.390625 27.21875 52.390625 27.140625 C 52.390625 27.125 52.390625 27.09375 52.390625 27.078125 C 52.421875 26.984375 52.484375 26.785156 52.574219 26.722656 C 52.589844 26.722656 52.605469 26.707031 52.636719 26.707031 C 52.667969 26.707031 52.683594 26.707031 52.714844 26.722656 C 52.746094 26.722656 52.761719 26.738281 52.792969 26.738281 C 52.824219 26.738281 52.839844 26.738281 52.871094 26.722656 L 53.210938 26.472656 C 53.289062 26.410156 53.445312 26.304688 53.445312 26.257812 C 53.445312 26.117188 53.644531 26.179688 53.707031 26.070312 C 53.925781 25.730469 54.1875 25.777344 54.527344 25.683594 C 54.683594 25.636719 54.730469 25.589844 54.808594 25.589844 C 54.871094 25.605469 54.949219 25.621094 54.992188 25.667969 C 55.085938 25.730469 55.023438 25.839844 55.132812 25.886719 C 55.257812 25.945312 55.382812 25.976562 55.503906 26.007812 C 55.519531 26.007812 55.535156 26.007812 55.535156 25.992188 C 55.535156 25.976562 55.535156 25.976562 55.519531 25.976562 L 55.148438 25.390625 C 55.117188 25.328125 55.101562 25.265625 55.101562 25.203125 C 55.101562 25.1875 55.101562 25.171875 55.101562 25.15625 C 55.148438 25.140625 55.195312 25.109375 55.226562 25.078125 C 55.304688 25 55.320312 24.910156 55.445312 24.894531 C 55.566406 24.878906 55.566406 24.800781 55.644531 24.738281 C 55.722656 24.675781 55.847656 24.738281 55.847656 24.597656 L 55.847656 24.488281 C 55.847656 24.367188 55.753906 24.304688 55.753906 24.195312 C 55.753906 24.179688 55.753906 24.148438 55.769531 24.132812 L 55.816406 24.023438 L 55.597656 23.933594 C 55.503906 23.886719 55.414062 23.777344 55.304688 23.777344 C 55.195312 23.777344 55.132812 23.824219 55.054688 23.824219 C 55.039062 23.824219 55.023438 23.824219 54.992188 23.824219 C 54.792969 23.777344 54.824219 23.652344 54.683594 23.652344 C 54.636719 23.652344 54.574219 23.667969 54.527344 23.683594 C 54.496094 23.699219 54.46875 23.699219 54.4375 23.699219 C 54.375 23.714844 54.3125 23.667969 54.3125 23.605469 C 54.3125 23.605469 54.3125 23.589844 54.3125 23.589844 C 54.3125 23.558594 54.3125 23.542969 54.328125 23.511719 C 54.375 23.375 54.511719 23.3125 54.605469 23.21875 C 54.621094 23.1875 54.636719 23.15625 54.636719 23.109375 C 54.636719 22.972656 54.589844 22.832031 54.511719 22.707031 C 54.453125 22.644531 54.390625 22.644531 54.3125 22.566406 C 54.296875 22.550781 54.265625 22.535156 54.25 22.523438 C 54.203125 22.523438 54.1875 22.597656 54.1875 22.660156 C 54.171875 22.753906 54.140625 22.785156 54.109375 22.785156 C 54.078125 22.785156 54.015625 22.675781 54.015625 22.582031 C 54.015625 22.566406 54.015625 22.550781 54.015625 22.535156 C 54.03125 22.492188 54.1875 22.367188 54.1875 22.289062 C 54.1875 22.273438 54.1875 22.257812 54.171875 22.257812 C 54.125 22.226562 53.925781 21.964844 53.894531 21.949219 C 53.816406 21.949219 53.628906 22.132812 53.535156 22.179688 C 53.226562 22.304688 52.855469 22.476562 52.515625 22.476562 C 52.328125 22.476562 52.125 22.414062 51.972656 22.304688 C 51.878906 22.242188 51.832031 22.210938 51.785156 22.210938 C 51.722656 22.210938 51.660156 22.242188 51.613281 22.273438 C 51.429688 22.351562 51.273438 22.460938 51.117188 22.566406 C 51.074219 22.628906 51.089844 22.738281 50.980469 22.738281 L 50.917969 22.738281 C 50.839844 22.738281 50.855469 22.785156 50.824219 22.894531 C 50.777344 23.015625 50.683594 23.109375 50.5625 23.140625 C 50.3125 23.34375 50.082031 23.25 49.800781 23.3125 C 49.648438 23.34375 49.632812 23.636719 49.570312 23.746094 C 49.398438 24.039062 48.824219 24.054688 48.824219 24.351562 C 48.824219 24.613281 48.59375 24.613281 48.390625 24.691406 C 48.375 24.691406 48.359375 24.707031 48.328125 24.707031 C 48.296875 24.707031 48.265625 24.691406 48.234375 24.691406 C 48.203125 24.675781 48.175781 24.675781 48.144531 24.675781 L 48.128906 24.675781 C 47.972656 24.707031 47.910156 24.832031 47.753906 24.847656 L 47.257812 24.941406 C 47.242188 24.984375 47.242188 25.046875 47.242188 25.09375 C 47.242188 25.203125 47.304688 25.3125 47.398438 25.34375 C 47.429688 25.359375 47.460938 25.359375 47.492188 25.359375 C 47.539062 25.359375 47.570312 25.34375 47.617188 25.34375 C 47.648438 25.328125 47.695312 25.328125 47.722656 25.328125 C 47.769531 25.328125 47.800781 25.34375 47.832031 25.421875 C 47.863281 25.496094 47.957031 25.558594 47.957031 25.636719 C 47.957031 25.730469 47.832031 25.777344 47.832031 25.886719 C 47.832031 25.902344 47.832031 25.914062 47.832031 25.929688 C 47.863281 26.023438 47.957031 26.117188 47.972656 26.210938 C 47.972656 26.226562 47.972656 26.242188 47.972656 26.257812 C 47.988281 26.304688 47.941406 26.367188 47.894531 26.367188 L 47.878906 26.367188 C 47.816406 26.367188 47.769531 26.304688 47.722656 26.304688 C 47.695312 26.304688 47.695312 26.320312 47.695312 26.335938 L 47.695312 26.351562 C 47.695312 26.367188 47.695312 26.382812 47.679688 26.398438 C 47.679688 26.398438 47.664062 26.398438 47.664062 26.410156 C 47.648438 26.410156 47.632812 26.398438 47.617188 26.367188 C 47.601562 26.335938 47.585938 26.320312 47.570312 26.320312 C 47.492188 26.335938 47.460938 26.441406 47.335938 26.441406 L 47.273438 26.441406 C 47.214844 26.441406 47.167969 26.441406 47.121094 26.410156 C 47.089844 26.382812 47.027344 26.304688 46.980469 26.304688 C 46.964844 26.304688 46.949219 26.320312 46.933594 26.335938 C 46.886719 26.441406 46.839844 26.472656 46.777344 26.472656 C 46.703125 26.457031 46.625 26.441406 46.5625 26.410156 C 46.375 26.410156 46.128906 26.472656 45.925781 26.472656 C 45.894531 26.472656 45.863281 26.472656 45.832031 26.472656 C 45.648438 26.457031 45.492188 26.273438 45.367188 26.273438 C 45.214844 26.273438 45.167969 26.425781 45.042969 26.488281 C 44.964844 26.519531 44.886719 26.535156 44.808594 26.535156 L 44.625 26.535156 C 44.578125 26.535156 44.53125 26.535156 44.484375 26.550781 L 44.453125 26.550781 C 44.328125 26.550781 44.050781 26.398438 43.925781 26.367188 C 43.910156 26.367188 43.878906 26.367188 43.863281 26.367188 C 43.820312 26.367188 43.789062 26.382812 43.742188 26.382812 C 43.710938 26.398438 43.664062 26.398438 43.632812 26.398438 C 43.617188 26.398438 43.601562 26.398438 43.585938 26.398438 C 43.460938 26.367188 43.398438 26.242188 43.292969 26.179688 C 43.105469 26.085938 43.152344 26.023438 43.042969 25.886719 C 43.027344 25.871094 43.011719 25.839844 43.011719 25.824219 C 43.011719 25.746094 43.167969 25.730469 43.214844 25.636719 C 43.121094 25.542969 43.058594 25.40625 43.058594 25.265625 C 43.058594 25.1875 43.074219 25.109375 43.074219 24.984375 C 43.105469 24.925781 43.121094 24.863281 43.105469 24.785156 C 43.105469 24.675781 43.089844 24.582031 43.074219 24.472656 C 43.011719 24.414062 42.84375 24.226562 42.75 24.226562 C 42.59375 24.414062 42.347656 24.503906 42.097656 24.472656 C 42.003906 24.472656 42.019531 24.582031 41.972656 24.644531 C 42.019531 24.675781 42.066406 24.675781 42.066406 24.738281 C 42.066406 24.738281 42.066406 24.738281 42.066406 24.753906 C 42.050781 24.816406 42.019531 24.894531 41.988281 24.953125 C 41.910156 25.09375 41.867188 25.234375 41.851562 25.375 L 41.851562 25.390625 C 41.851562 25.464844 41.867188 25.527344 41.867188 25.605469 C 41.867188 25.652344 41.867188 25.699219 41.851562 25.746094 C 41.835938 25.777344 41.835938 25.824219 41.835938 25.871094 C 41.835938 26.070312 41.972656 26.164062 42.050781 26.367188 C 42.082031 26.425781 42.097656 26.488281 42.097656 26.550781 C 42.097656 26.613281 42.066406 26.644531 42.003906 26.769531 C 41.988281 26.816406 41.972656 26.878906 41.988281 26.921875 L 41.988281 26.984375 C 42.003906 27.03125 41.988281 27.09375 41.957031 27.140625 C 41.941406 27.171875 41.898438 27.1875 41.867188 27.1875 C 41.804688 27.1875 41.757812 27.15625 41.726562 27.109375 C 41.679688 27.078125 41.648438 27.03125 41.617188 27.03125 C 41.585938 27.03125 41.585938 27.046875 41.570312 27.078125 C 41.554688 27.09375 41.539062 27.109375 41.507812 27.109375 C 41.492188 27.109375 41.476562 27.109375 41.460938 27.109375 C 41.445312 27.109375 41.429688 27.109375 41.414062 27.109375 C 41.402344 27.109375 41.402344 27.109375 41.386719 27.109375 C 41.339844 27.125 41.308594 27.171875 41.277344 27.171875 C 41.261719 27.171875 41.246094 27.171875 41.230469 27.15625 C 41.136719 27.109375 41.167969 27.0625 41.058594 27.0625 L 41.027344 27.0625 C 40.921875 27.0625 40.90625 27.203125 40.84375 27.203125 C 40.8125 27.203125 40.78125 27.1875 40.765625 27.15625 C 40.671875 27.0625 40.5 27.125 40.46875 27.03125 C 40.453125 27 40.441406 26.847656 40.410156 26.847656 C 40.347656 26.847656 40.191406 27 40.113281 27.03125 C 40.066406 27.046875 40.003906 27.0625 39.960938 27.0625 C 39.851562 27.0625 39.789062 27 39.664062 26.921875 C 39.417969 26.785156 39.214844 26.863281 38.984375 26.753906 C 38.96875 26.738281 38.9375 26.738281 38.90625 26.738281 C 38.84375 26.738281 38.796875 26.753906 38.734375 26.785156 C 38.6875 26.800781 38.625 26.816406 38.578125 26.832031 C 38.503906 26.832031 38.441406 26.785156 38.425781 26.582031 C 38.410156 26.441406 38.347656 26.398438 38.269531 26.398438 C 38.175781 26.410156 38.097656 26.441406 38.023438 26.472656 C 37.945312 26.519531 37.851562 26.550781 37.757812 26.550781 C 37.679688 26.550781 37.617188 26.503906 37.601562 26.441406 C 37.570312 26.382812 37.554688 26.367188 37.527344 26.367188 C 37.496094 26.382812 37.449219 26.382812 37.417969 26.382812 C 37.355469 26.382812 37.339844 26.210938 37.183594 26.179688 C 37.074219 26.132812 36.859375 26.101562 36.859375 25.992188 C 36.859375 25.976562 36.859375 25.960938 36.859375 25.945312 C 36.875 25.902344 36.890625 25.839844 36.890625 25.792969 C 36.890625 25.699219 36.828125 25.605469 36.71875 25.605469 C 36.71875 25.605469 36.703125 25.605469 36.703125 25.605469 C 36.566406 25.605469 36.425781 25.558594 36.285156 25.511719 C 36.222656 25.480469 36.039062 25.296875 35.976562 25.296875 C 35.960938 25.296875 35.960938 25.296875 35.960938 25.3125 C 35.945312 25.375 35.898438 25.421875 35.820312 25.421875 C 35.804688 25.421875 35.789062 25.421875 35.757812 25.40625 C 35.742188 25.40625 35.726562 25.390625 35.695312 25.390625 C 35.617188 25.390625 35.601562 25.464844 35.511719 25.480469 C 35.386719 25.464844 35.355469 25.34375 35.230469 25.34375 L 34.921875 25.34375 C 34.921875 25.359375 34.921875 25.375 34.921875 25.390625 L 34.921875 25.449219 C 34.921875 25.527344 34.921875 25.621094 34.84375 25.621094 C 34.796875 25.621094 34.765625 25.589844 34.734375 25.574219 C 34.613281 25.480469 34.628906 25.390625 34.503906 25.390625 C 34.472656 25.390625 34.441406 25.390625 34.410156 25.40625 C 34.394531 25.40625 34.378906 25.40625 34.347656 25.40625 C 34.253906 25.40625 34.285156 25.328125 34.207031 25.3125 C 34.070312 25.28125 33.992188 25.359375 33.960938 25.125 C 33.945312 25 33.898438 24.953125 33.851562 24.953125 C 33.804688 24.953125 33.679688 25.03125 33.574219 25.046875 C 33.464844 25.046875 33.046875 24.660156 32.921875 24.582031 C 32.90625 24.566406 32.890625 24.566406 32.875 24.566406 C 32.84375 24.566406 32.8125 24.613281 32.796875 24.644531 C 32.78125 24.675781 32.75 24.722656 32.71875 24.722656 C 32.703125 24.722656 32.691406 24.722656 32.675781 24.707031 C 32.535156 24.613281 32.410156 24.488281 32.253906 24.398438 C 32.101562 24.304688 31.882812 24.210938 31.789062 24.070312 C 31.699219 23.933594 31.742188 23.871094 31.542969 23.839844 C 31.261719 23.792969 30.953125 23.484375 30.738281 23.328125 C 30.722656 23.3125 30.707031 23.3125 30.707031 23.3125 C 30.691406 23.3125 30.691406 23.328125 30.691406 23.328125 C 30.691406 23.328125 30.707031 23.390625 30.707031 23.421875 C 30.707031 23.4375 30.707031 23.4375 30.707031 23.453125 C 30.707031 23.453125 30.691406 23.46875 30.691406 23.46875 C 30.628906 23.46875 30.566406 23.453125 30.519531 23.421875 L 30.023438 22.957031 C 30.007812 22.957031 30.007812 22.941406 30.007812 22.925781 C 30.007812 22.863281 30.132812 22.753906 30.132812 22.660156 C 30.148438 22.492188 30.300781 22.582031 30.316406 22.382812 C 30.332031 22.351562 30.347656 22.304688 30.347656 22.273438 C 30.347656 22.195312 30.300781 22.148438 30.300781 22.085938 C 30.300781 22.054688 30.316406 22.027344 30.332031 21.996094 C 30.410156 21.902344 30.472656 21.777344 30.488281 21.652344 C 30.488281 21.636719 30.488281 21.621094 30.488281 21.605469 C 30.488281 21.589844 30.488281 21.558594 30.488281 21.546875 C 30.488281 21.484375 30.519531 21.421875 30.582031 21.421875 C 30.582031 21.421875 30.597656 21.421875 30.597656 21.421875 C 30.707031 21.40625 30.78125 21.234375 30.796875 21.140625 C 30.84375 21.140625 30.90625 21.125 30.953125 21.09375 C 31.015625 21.066406 30.96875 21.003906 31.03125 20.972656 C 31.171875 20.925781 31.15625 20.753906 31.203125 20.738281 C 31.261719 20.738281 31.339844 20.769531 31.417969 20.769531 C 31.449219 20.769531 31.464844 20.769531 31.496094 20.753906 C 31.417969 20.597656 31.386719 20.597656 31.21875 20.554688 C 31.078125 20.539062 30.953125 20.460938 30.890625 20.335938 C 30.828125 20.210938 30.675781 20.273438 30.582031 20.210938 C 30.378906 20.195312 30.195312 20.101562 30.195312 19.902344 L 30.195312 19.839844 C 30.195312 19.824219 30.195312 19.824219 30.195312 19.808594 C 30.195312 19.699219 30.164062 19.667969 30.117188 19.667969 L 30.023438 19.667969 C 29.976562 19.667969 29.929688 19.652344 29.898438 19.621094 C 29.835938 19.5625 29.804688 19.4375 29.746094 19.375 C 29.714844 19.328125 29.652344 19.296875 29.589844 19.296875 C 29.542969 19.296875 29.496094 19.3125 29.449219 19.328125 C 29.402344 19.34375 29.355469 19.359375 29.308594 19.359375 C 29.296875 19.359375 29.296875 19.359375 29.28125 19.359375 C 29.109375 19.265625 28.953125 19.140625 28.828125 19.003906 C 28.722656 18.847656 28.613281 18.570312 28.472656 18.570312 C 28.410156 18.570312 28.363281 18.617188 28.304688 18.722656 C 28.257812 18.800781 28.226562 18.832031 28.195312 18.832031 C 28.132812 18.832031 28.117188 18.691406 28.039062 18.648438 C 28.023438 18.570312 28.007812 18.476562 27.992188 18.398438 C 27.992188 18.367188 27.992188 18.335938 28.023438 18.335938 C 28.039062 18.289062 28.085938 18.304688 28.117188 18.273438 C 28.117188 18.257812 28.132812 18.242188 28.132812 18.226562 C 28.132812 18.136719 27.976562 18.089844 27.945312 18.011719 C 27.929688 17.996094 27.929688 17.964844 27.929688 17.949219 C 27.929688 17.871094 27.992188 17.792969 27.992188 17.714844 C 27.992188 17.46875 27.808594 17.375 27.652344 17.234375 C 27.605469 17.175781 27.589844 17.097656 27.589844 17.019531 C 27.589844 16.957031 27.589844 16.878906 27.589844 16.847656 C 27.589844 16.769531 27.511719 16.722656 27.511719 16.679688 C 27.511719 16.601562 27.621094 16.585938 27.621094 16.523438 C 27.730469 16.492188 27.851562 16.507812 27.929688 16.414062 L 27.976562 16.351562 C 27.992188 16.492188 28.023438 16.617188 28.054688 16.753906 C 28.164062 16.878906 28.226562 16.941406 28.320312 16.941406 C 28.363281 16.941406 28.410156 16.925781 28.457031 16.925781 C 28.628906 16.878906 28.535156 16.832031 28.628906 16.695312 C 28.738281 16.664062 29.234375 16.601562 29.234375 16.429688 C 29.234375 16.398438 29.21875 16.351562 29.1875 16.335938 C 29.03125 16.183594 28.9375 15.980469 28.90625 15.777344 C 28.90625 15.734375 28.90625 15.6875 28.921875 15.640625 C 28.9375 15.609375 28.9375 15.578125 28.9375 15.53125 C 28.9375 15.4375 28.875 15.421875 28.785156 15.421875 C 28.753906 15.421875 28.722656 15.421875 28.675781 15.4375 C 28.660156 15.4375 28.644531 15.4375 28.628906 15.4375 C 28.441406 15.4375 28.378906 15.222656 28.304688 15.097656 C 28.304688 15.082031 28.289062 15.066406 28.289062 15.050781 C 28.289062 15.035156 28.289062 15.003906 28.289062 14.988281 C 28.289062 14.972656 28.289062 14.957031 28.273438 14.957031 C 28.242188 14.910156 28.210938 14.863281 28.195312 14.800781 C 28.195312 14.726562 28.257812 14.726562 28.320312 14.726562 L 28.335938 14.726562 C 28.378906 14.726562 28.425781 14.726562 28.425781 14.664062 C 28.425781 14.648438 28.425781 14.632812 28.425781 14.617188 C 28.425781 14.617188 28.425781 14.601562 28.425781 14.601562 C 28.425781 14.507812 28.210938 14.261719 28.210938 14.199219 L 28.210938 14.183594 C 28.210938 14.074219 28.273438 14.058594 28.347656 14.058594 C 28.394531 14.058594 28.441406 14.058594 28.472656 14.074219 C 28.488281 14.074219 28.503906 14.074219 28.535156 14.089844 C 28.628906 14.089844 28.660156 14.011719 28.769531 14.011719 L 28.800781 14.011719 C 28.828125 14.011719 28.859375 14.011719 28.875 14.011719 C 28.890625 14.011719 28.90625 14.011719 28.9375 14.011719 C 28.984375 14.011719 29.015625 13.980469 29.0625 13.839844 C 29.109375 13.703125 29.21875 13.59375 29.21875 13.453125 C 29.21875 13.421875 29.21875 13.390625 29.203125 13.359375 C 29.1875 13.328125 29.171875 13.300781 29.171875 13.269531 C 29.171875 13.253906 29.171875 13.253906 29.1875 13.253906 L 29.21875 13.253906 C 29.25 13.253906 29.28125 13.253906 29.308594 13.238281 C 29.480469 13.207031 29.464844 13.253906 29.496094 13.066406 C 29.542969 13.003906 29.605469 12.941406 29.667969 12.894531 C 29.699219 12.878906 29.746094 12.863281 29.789062 12.863281 L 29.867188 12.863281 C 29.929688 12.863281 29.976562 12.847656 29.976562 12.773438 C 29.976562 12.757812 29.960938 12.757812 29.960938 12.742188 C 29.960938 12.648438 30.101562 12.460938 30.132812 12.398438 C 30.179688 12.277344 30.164062 12.152344 30.195312 12.027344 C 30.210938 11.964844 30.285156 11.933594 30.300781 11.859375 C 30.316406 11.75 30.300781 11.671875 30.363281 11.59375 C 30.425781 11.515625 30.441406 11.484375 30.441406 11.46875 C 30.441406 11.421875 30.347656 11.4375 30.300781 11.332031 C 30.285156 11.300781 30.273438 11.285156 30.257812 11.285156 C 30.242188 11.285156 30.179688 11.363281 30.148438 11.390625 C 30.085938 11.4375 30.054688 11.46875 30.007812 11.46875 C 29.960938 11.46875 29.945312 11.4375 29.914062 11.347656 C 29.882812 11.207031 29.761719 11.082031 29.621094 11.050781 C 29.464844 10.988281 29.339844 10.882812 29.234375 10.773438 C 29.109375 10.695312 29.015625 10.585938 28.90625 10.492188 C 28.875 10.460938 28.828125 10.460938 28.800781 10.460938 C 28.722656 10.460938 28.628906 10.492188 28.535156 10.507812 C 28.488281 10.507812 28.441406 10.507812 28.394531 10.507812 L 28.320312 10.507812 C 28.132812 10.492188 27.960938 10.539062 27.824219 10.648438 C 27.699219 10.757812 27.558594 10.851562 27.417969 10.910156 C 27.265625 10.957031 27.140625 11.144531 26.984375 11.144531 C 26.96875 11.144531 26.953125 11.144531 26.9375 11.144531 L 26.921875 11.144531 C 26.832031 11.144531 26.847656 11.300781 26.816406 11.347656 C 26.800781 11.363281 26.785156 11.363281 26.769531 11.363281 C 26.738281 11.363281 26.691406 11.347656 26.660156 11.316406 C 26.628906 11.300781 26.597656 11.285156 26.550781 11.285156 C 26.535156 11.285156 26.519531 11.285156 26.503906 11.300781 L 26.472656 11.316406 C 26.351562 11.347656 26.226562 11.363281 26.101562 11.363281 C 25.976562 11.363281 25.914062 11.253906 25.839844 11.253906 C 25.683594 11.253906 25.375 11.191406 25.265625 11.066406 C 25.21875 11.003906 25 10.988281 24.894531 10.910156 C 24.769531 10.804688 24.675781 10.773438 24.675781 10.585938 C 24.535156 10.585938 24.429688 10.679688 24.273438 10.679688 L 24.257812 10.679688 C 24.085938 10.679688 24.070312 10.617188 24.070312 10.554688 C 24.070312 10.507812 24.054688 10.445312 24.007812 10.414062 L 23.761719 10.230469 C 23.746094 10.214844 23.746094 10.199219 23.746094 10.183594 C 23.746094 10.121094 23.855469 10.011719 23.855469 9.964844 C 23.855469 9.964844 23.855469 9.949219 23.855469 9.949219 C 23.839844 9.921875 23.824219 9.890625 23.824219 9.84375 C 23.824219 9.78125 23.855469 9.734375 23.855469 9.6875 C 23.855469 9.65625 23.839844 9.625 23.824219 9.59375 C 23.746094 9.453125 23.699219 9.332031 23.621094 9.191406 C 23.558594 9.113281 23.421875 9.082031 23.34375 9.035156 C 23.328125 9.035156 23.3125 9.035156 23.296875 9.035156 C 23.234375 9.035156 23.1875 9.050781 23.125 9.066406 C 23.078125 9.082031 23.03125 9.097656 22.988281 9.097656 C 22.972656 9.097656 22.972656 9.097656 22.972656 9.082031 C 22.957031 8.988281 22.925781 8.648438 22.847656 8.632812 C 22.738281 8.601562 22.644531 8.632812 22.535156 8.585938 C 22.507812 8.570312 22.476562 8.554688 22.445312 8.554688 C 22.367188 8.554688 22.367188 8.632812 22.257812 8.664062 C 22.242188 8.664062 22.242188 8.664062 22.226562 8.664062 C 22.132812 8.664062 22.085938 8.539062 22.085938 8.449219 C 22.039062 8.464844 22.011719 8.492188 21.949219 8.492188 C 21.855469 8.492188 21.902344 8.402344 21.855469 8.371094 C 21.964844 8.371094 21.964844 8.371094 21.949219 8.371094 "/>
<path style=" stroke:none;fill-rule:nonzero;fill:rgb(68.235294%,56.862745%,45.098039%);fill-opacity:1;" d="M 48.203125 27.898438 C 48.203125 27.914062 48.21875 27.945312 48.234375 27.945312 L 49.847656 28.691406 L 49.847656 26.878906 L 48.203125 26.164062 Z M 48.640625 26.816406 C 48.640625 26.800781 48.65625 26.785156 48.671875 26.769531 C 48.683594 26.753906 48.699219 26.753906 48.714844 26.769531 L 49.476562 27.09375 C 49.492188 27.109375 49.507812 27.125 49.507812 27.140625 L 49.507812 27.851562 C 49.507812 27.867188 49.492188 27.882812 49.476562 27.898438 C 49.460938 27.898438 49.460938 27.914062 49.445312 27.914062 C 49.445312 27.914062 49.429688 27.914062 49.429688 27.914062 L 48.671875 27.574219 C 48.65625 27.558594 48.640625 27.542969 48.640625 27.527344 Z M 48.640625 26.816406 "/>
<path style=" stroke:none;fill-rule:nonzero;fill:rgb(68.235294%,56.862745%,45.098039%);fill-opacity:1;" d="M 49.042969 25.777344 L 48.265625 26.085938 L 49.894531 26.800781 L 50.578125 26.472656 Z M 49.042969 25.777344 "/>
<path style=" stroke:none;fill-rule:nonzero;fill:rgb(68.235294%,56.862745%,45.098039%);fill-opacity:1;" d="M 49.941406 26.890625 L 49.941406 28.691406 L 51.429688 27.945312 C 51.445312 27.929688 51.460938 27.914062 51.460938 27.898438 L 51.460938 26.195312 Z M 49.941406 26.890625 "/>
<path style=" stroke:none;fill-rule:nonzero;fill:rgb(68.235294%,56.862745%,45.098039%);fill-opacity:1;" d="M 51.414062 26.085938 L 49.910156 25.433594 C 49.894531 25.433594 49.878906 25.433594 49.863281 25.433594 L 49.164062 25.714844 L 50.699219 26.410156 Z M 51.414062 26.085938 "/>
<path style=" stroke:none;fill-rule:nonzero;fill:rgb(68.235294%,56.862745%,45.098039%);fill-opacity:1;" d="M 23.1875 14.988281 C 23.1875 15.003906 23.203125 15.035156 23.21875 15.035156 L 24.816406 15.777344 L 24.816406 13.996094 L 23.171875 13.285156 L 23.171875 14.988281 Z M 23.621094 13.902344 C 23.621094 13.886719 23.636719 13.871094 23.652344 13.855469 C 23.667969 13.839844 23.683594 13.839844 23.699219 13.855469 L 24.460938 14.183594 C 24.472656 14.199219 24.488281 14.214844 24.488281 14.230469 L 24.488281 14.941406 C 24.488281 14.957031 24.472656 14.972656 24.472656 14.988281 C 24.460938 14.988281 24.460938 14.988281 24.445312 15.003906 C 24.445312 15.003906 24.429688 15.003906 24.429688 15.003906 L 23.667969 14.679688 C 23.652344 14.664062 23.636719 14.648438 23.636719 14.632812 Z M 23.621094 13.902344 "/>
<path style=" stroke:none;fill-rule:nonzero;fill:rgb(68.235294%,56.862745%,45.098039%);fill-opacity:1;" d="M 24.023438 12.878906 L 23.25 13.191406 L 24.878906 13.886719 L 25.574219 13.578125 Z M 24.023438 12.878906 "/>
<path style=" stroke:none;fill-rule:nonzero;fill:rgb(68.235294%,56.862745%,45.098039%);fill-opacity:1;" d="M 24.941406 13.996094 L 24.941406 15.792969 L 26.425781 15.050781 C 26.441406 15.035156 26.457031 15.019531 26.457031 15.003906 L 26.457031 13.300781 Z M 24.941406 13.996094 "/>
<path style=" stroke:none;fill-rule:nonzero;fill:rgb(68.235294%,56.862745%,45.098039%);fill-opacity:1;" d="M 26.398438 13.191406 L 24.894531 12.554688 C 24.878906 12.554688 24.863281 12.554688 24.847656 12.554688 L 24.148438 12.835938 L 25.683594 13.53125 Z M 26.398438 13.191406 "/>
<path style=" stroke:none;fill-rule:nonzero;fill:rgb(68.235294%,56.862745%,45.098039%);fill-opacity:1;" d="M 23.265625 22.117188 C 23.265625 22.132812 23.28125 22.164062 23.296875 22.164062 L 24.910156 22.910156 L 24.910156 21.109375 L 23.265625 20.398438 Z M 23.699219 21.035156 C 23.699219 21.019531 23.714844 21.003906 23.730469 20.988281 C 23.746094 20.972656 23.761719 20.972656 23.777344 20.988281 L 24.535156 21.3125 C 24.550781 21.328125 24.566406 21.34375 24.566406 21.359375 L 24.566406 22.070312 C 24.566406 22.085938 24.550781 22.101562 24.535156 22.117188 C 24.519531 22.117188 24.519531 22.132812 24.503906 22.132812 C 24.503906 22.132812 24.488281 22.132812 24.488281 22.132812 L 23.730469 21.808594 C 23.714844 21.792969 23.699219 21.777344 23.699219 21.761719 Z M 23.699219 21.035156 "/>
<path style=" stroke:none;fill-rule:nonzero;fill:rgb(68.235294%,56.862745%,45.098039%);fill-opacity:1;" d="M 24.101562 19.996094 L 23.34375 20.304688 L 24.953125 21.019531 L 25.652344 20.691406 Z M 24.101562 19.996094 "/>
<path style=" stroke:none;fill-rule:nonzero;fill:rgb(68.235294%,56.862745%,45.098039%);fill-opacity:1;" d="M 25.015625 21.109375 L 25.015625 22.910156 L 26.503906 22.164062 C 26.519531 22.148438 26.535156 22.132812 26.535156 22.117188 L 26.535156 20.414062 Z M 25.015625 21.109375 "/>
<path style=" stroke:none;fill-rule:nonzero;fill:rgb(68.235294%,56.862745%,45.098039%);fill-opacity:1;" d="M 26.488281 20.304688 L 24.984375 19.667969 C 24.96875 19.667969 24.953125 19.667969 24.941406 19.667969 L 24.242188 19.949219 L 25.777344 20.644531 Z M 26.488281 20.304688 "/>
<path style=" stroke:none;fill-rule:nonzero;fill:rgb(68.235294%,56.862745%,45.098039%);fill-opacity:1;" d="M 19.714844 29.078125 C 19.714844 29.09375 19.730469 29.125 19.746094 29.125 L 21.359375 29.867188 L 21.359375 28.070312 L 19.714844 27.359375 Z M 20.148438 27.992188 C 20.148438 27.976562 20.164062 27.960938 20.179688 27.945312 C 20.195312 27.929688 20.210938 27.929688 20.226562 27.945312 L 20.988281 28.273438 C 21.003906 28.289062 21.019531 28.304688 21.019531 28.320312 L 21.019531 29.03125 C 21.019531 29.046875 21.003906 29.0625 20.988281 29.078125 C 20.972656 29.078125 20.972656 29.09375 20.957031 29.09375 C 20.957031 29.09375 20.941406 29.09375 20.941406 29.09375 L 20.179688 28.769531 C 20.164062 28.753906 20.148438 28.738281 20.148438 28.722656 Z M 20.148438 27.992188 "/>
<path style=" stroke:none;fill-rule:nonzero;fill:rgb(68.235294%,56.862745%,45.098039%);fill-opacity:1;" d="M 20.539062 26.96875 L 19.777344 27.265625 L 21.40625 27.976562 L 22.085938 27.667969 Z M 20.539062 26.96875 "/>
<path style=" stroke:none;fill-rule:nonzero;fill:rgb(68.235294%,56.862745%,45.098039%);fill-opacity:1;" d="M 21.453125 28.070312 L 21.453125 29.867188 L 22.941406 29.125 C 22.957031 29.109375 22.972656 29.09375 22.972656 29.078125 L 22.972656 27.359375 Z M 21.453125 28.070312 "/>
<path style=" stroke:none;fill-rule:nonzero;fill:rgb(68.235294%,56.862745%,45.098039%);fill-opacity:1;" d="M 22.925781 27.28125 L 21.421875 26.644531 C 21.40625 26.644531 21.390625 26.644531 21.375 26.644531 L 20.675781 26.921875 L 22.210938 27.621094 Z M 22.925781 27.28125 "/>
<path style=" stroke:none;fill-rule:nonzero;fill:rgb(68.235294%,56.862745%,45.098039%);fill-opacity:1;" d="M 27.542969 29.945312 C 27.542969 29.960938 27.558594 29.992188 27.574219 29.992188 L 29.1875 30.738281 L 29.1875 28.9375 L 27.542969 28.226562 Z M 27.976562 28.859375 C 27.976562 28.84375 27.992188 28.828125 28.007812 28.816406 C 28.023438 28.800781 28.039062 28.800781 28.054688 28.816406 L 28.816406 29.140625 C 28.828125 29.15625 28.84375 29.171875 28.84375 29.1875 L 28.84375 29.898438 C 28.84375 29.914062 28.828125 29.929688 28.816406 29.945312 C 28.800781 29.945312 28.800781 29.960938 28.785156 29.960938 C 28.785156 29.960938 28.769531 29.960938 28.769531 29.960938 L 28.007812 29.636719 C 27.992188 29.621094 27.976562 29.605469 27.976562 29.589844 Z M 27.976562 28.859375 "/>
<path style=" stroke:none;fill-rule:nonzero;fill:rgb(68.235294%,56.862745%,45.098039%);fill-opacity:1;" d="M 28.378906 27.839844 L 27.605469 28.148438 L 29.234375 28.859375 L 29.914062 28.535156 Z M 28.378906 27.839844 "/>
<path style=" stroke:none;fill-rule:nonzero;fill:rgb(68.235294%,56.862745%,45.098039%);fill-opacity:1;" d="M 29.296875 28.953125 L 29.296875 30.753906 L 30.796875 30.007812 C 30.8125 29.992188 30.828125 29.976562 30.828125 29.960938 L 30.828125 28.242188 Z M 29.296875 28.953125 "/>
<path style=" stroke:none;fill-rule:nonzero;fill:rgb(68.235294%,56.862745%,45.098039%);fill-opacity:1;" d="M 30.753906 28.148438 L 29.25 27.511719 C 29.234375 27.511719 29.21875 27.511719 29.203125 27.511719 L 28.503906 27.792969 L 30.039062 28.488281 Z M 30.753906 28.148438 "/>
<path style=" stroke:none;fill-rule:nonzero;fill:rgb(68.235294%,56.862745%,45.098039%);fill-opacity:1;" d="M 35.695312 31.699219 C 35.695312 31.714844 35.710938 31.742188 35.726562 31.742188 L 37.339844 32.488281 L 37.339844 30.691406 L 35.710938 29.976562 Z M 36.128906 30.613281 C 36.128906 30.597656 36.144531 30.582031 36.160156 30.566406 C 36.175781 30.550781 36.191406 30.550781 36.207031 30.566406 L 36.96875 30.890625 C 36.984375 30.90625 37 30.921875 37 30.9375 L 37 31.652344 C 37 31.667969 36.984375 31.683594 36.96875 31.699219 C 36.953125 31.699219 36.953125 31.714844 36.9375 31.714844 C 36.9375 31.714844 36.921875 31.714844 36.921875 31.714844 L 36.160156 31.386719 C 36.144531 31.371094 36.128906 31.355469 36.128906 31.339844 Z M 36.128906 30.613281 "/>
<path style=" stroke:none;fill-rule:nonzero;fill:rgb(68.235294%,56.862745%,45.098039%);fill-opacity:1;" d="M 36.535156 29.574219 L 35.757812 29.882812 L 37.386719 30.597656 L 38.066406 30.273438 Z M 36.535156 29.574219 "/>
<path style=" stroke:none;fill-rule:nonzero;fill:rgb(68.235294%,56.862745%,45.098039%);fill-opacity:1;" d="M 37.449219 30.691406 L 37.449219 32.488281 L 38.9375 31.742188 C 38.953125 31.726562 38.96875 31.714844 38.96875 31.699219 L 38.96875 29.976562 Z M 37.449219 30.691406 "/>
<path style=" stroke:none;fill-rule:nonzero;fill:rgb(68.235294%,56.862745%,45.098039%);fill-opacity:1;" d="M 38.90625 29.882812 L 37.402344 29.25 C 37.386719 29.25 37.371094 29.25 37.355469 29.25 L 36.65625 29.527344 L 38.191406 30.226562 Z M 38.90625 29.882812 "/>
<path style=" stroke:none;fill-rule:nonzero;fill:rgb(68.235294%,56.862745%,45.098039%);fill-opacity:1;" d="M 22.722656 36.441406 C 22.722656 36.457031 22.738281 36.488281 22.753906 36.488281 L 24.367188 37.230469 L 24.367188 35.433594 L 22.722656 34.71875 Z M 23.15625 35.355469 C 23.15625 35.339844 23.171875 35.324219 23.1875 35.308594 C 23.203125 35.308594 23.21875 35.308594 23.234375 35.308594 L 23.992188 35.632812 C 24.007812 35.648438 24.023438 35.664062 24.023438 35.679688 L 24.023438 36.394531 C 24.023438 36.410156 24.007812 36.425781 23.992188 36.441406 C 23.976562 36.441406 23.976562 36.457031 23.964844 36.457031 C 23.964844 36.457031 23.949219 36.457031 23.949219 36.457031 L 23.1875 36.113281 C 23.171875 36.097656 23.15625 36.085938 23.15625 36.070312 Z M 23.15625 35.355469 "/>
<path style=" stroke:none;fill-rule:nonzero;fill:rgb(68.235294%,56.862745%,45.098039%);fill-opacity:1;" d="M 23.542969 34.332031 L 22.785156 34.628906 L 24.414062 35.339844 L 25.09375 35.03125 Z M 23.542969 34.332031 "/>
<path style=" stroke:none;fill-rule:nonzero;fill:rgb(68.235294%,56.862745%,45.098039%);fill-opacity:1;" d="M 24.460938 35.433594 L 24.460938 37.230469 L 25.960938 36.488281 C 25.976562 36.472656 25.992188 36.457031 25.992188 36.441406 L 25.992188 34.71875 Z M 24.460938 35.433594 "/>
<path style=" stroke:none;fill-rule:nonzero;fill:rgb(68.235294%,56.862745%,45.098039%);fill-opacity:1;" d="M 25.929688 34.640625 L 24.429688 34.007812 C 24.414062 34.007812 24.398438 34.007812 24.382812 34.007812 L 23.683594 34.285156 L 25.21875 34.984375 Z M 25.929688 34.640625 "/>
<path style=" stroke:none;fill-rule:nonzero;fill:rgb(68.235294%,56.862745%,45.098039%);fill-opacity:1;" d="M 30.550781 37.632812 C 30.550781 37.648438 30.566406 37.679688 30.582031 37.679688 L 32.179688 38.425781 L 32.179688 36.625 L 30.535156 35.914062 L 30.535156 37.632812 Z M 30.984375 36.550781 C 30.984375 36.535156 31 36.519531 31.015625 36.503906 C 31.03125 36.488281 31.046875 36.488281 31.0625 36.503906 L 31.820312 36.828125 C 31.835938 36.84375 31.851562 36.859375 31.851562 36.875 L 31.851562 37.585938 C 31.851562 37.601562 31.835938 37.617188 31.835938 37.632812 C 31.820312 37.632812 31.820312 37.648438 31.804688 37.648438 L 31.789062 37.648438 L 31.03125 37.324219 C 31.015625 37.308594 31 37.292969 31 37.277344 Z M 30.984375 36.550781 "/>
<path style=" stroke:none;fill-rule:nonzero;fill:rgb(68.235294%,56.862745%,45.098039%);fill-opacity:1;" d="M 31.386719 35.511719 L 30.613281 35.820312 L 32.238281 36.535156 L 32.9375 36.207031 Z M 31.386719 35.511719 "/>
<path style=" stroke:none;fill-rule:nonzero;fill:rgb(68.235294%,56.862745%,45.098039%);fill-opacity:1;" d="M 32.300781 36.625 L 32.300781 38.425781 L 33.789062 37.679688 C 33.804688 37.664062 33.820312 37.648438 33.820312 37.632812 L 33.820312 35.914062 Z M 32.300781 36.625 "/>
<path style=" stroke:none;fill-rule:nonzero;fill:rgb(68.235294%,56.862745%,45.098039%);fill-opacity:1;" d="M 33.757812 35.820312 L 32.253906 35.183594 C 32.238281 35.183594 32.222656 35.183594 32.210938 35.183594 L 31.511719 35.464844 L 33.046875 36.160156 Z M 33.757812 35.820312 "/>
<path style=" stroke:none;fill-rule:nonzero;fill:rgb(68.235294%,56.862745%,45.098039%);fill-opacity:1;" d="M 25.171875 42.453125 C 25.171875 42.46875 25.1875 42.5 25.203125 42.5 L 26.816406 43.246094 L 26.816406 41.445312 L 25.171875 40.734375 Z M 25.605469 41.371094 C 25.605469 41.355469 25.621094 41.339844 25.636719 41.324219 C 25.652344 41.308594 25.667969 41.308594 25.683594 41.324219 L 26.441406 41.648438 C 26.457031 41.664062 26.472656 41.679688 26.472656 41.695312 L 26.472656 42.40625 C 26.472656 42.421875 26.457031 42.4375 26.441406 42.453125 C 26.425781 42.453125 26.425781 42.46875 26.410156 42.46875 C 26.410156 42.46875 26.398438 42.46875 26.398438 42.46875 L 25.636719 42.144531 C 25.621094 42.128906 25.605469 42.113281 25.605469 42.097656 Z M 25.605469 41.371094 "/>
<path style=" stroke:none;fill-rule:nonzero;fill:rgb(68.235294%,56.862745%,45.098039%);fill-opacity:1;" d="M 26.007812 40.347656 L 25.234375 40.640625 L 26.863281 41.355469 L 27.542969 41.042969 Z M 26.007812 40.347656 "/>
<path style=" stroke:none;fill-rule:nonzero;fill:rgb(68.235294%,56.862745%,45.098039%);fill-opacity:1;" d="M 26.90625 41.460938 L 26.90625 43.261719 L 28.410156 42.515625 C 28.425781 42.5 28.441406 42.484375 28.441406 42.46875 L 28.441406 40.75 Z M 26.90625 41.460938 "/>
<path style=" stroke:none;fill-rule:nonzero;fill:rgb(68.235294%,56.862745%,45.098039%);fill-opacity:1;" d="M 28.378906 40.65625 L 26.878906 40.019531 C 26.863281 40.019531 26.847656 40.019531 26.832031 40.019531 L 26.132812 40.300781 L 27.667969 40.996094 Z M 28.378906 40.65625 "/>
<path style=" stroke:none;fill-rule:nonzero;fill:rgb(68.235294%,56.862745%,45.098039%);fill-opacity:1;" d="M 24.460938 49.257812 C 24.460938 49.273438 24.472656 49.304688 24.488281 49.304688 L 26.085938 50.066406 L 26.085938 48.265625 L 24.445312 47.554688 L 24.445312 49.257812 Z M 24.894531 48.175781 C 24.894531 48.160156 24.910156 48.144531 24.925781 48.128906 C 24.941406 48.113281 24.953125 48.113281 24.96875 48.128906 L 25.730469 48.453125 C 25.746094 48.46875 25.761719 48.484375 25.761719 48.5 L 25.761719 49.210938 C 25.761719 49.226562 25.746094 49.242188 25.746094 49.257812 C 25.730469 49.257812 25.730469 49.273438 25.714844 49.273438 L 25.699219 49.273438 L 24.941406 48.949219 C 24.925781 48.933594 24.910156 48.917969 24.910156 48.902344 Z M 24.894531 48.175781 "/>
<path style=" stroke:none;fill-rule:nonzero;fill:rgb(68.235294%,56.862745%,45.098039%);fill-opacity:1;" d="M 25.296875 47.152344 L 24.519531 47.460938 L 26.148438 48.175781 L 26.832031 47.847656 Z M 25.296875 47.152344 "/>
<path style=" stroke:none;fill-rule:nonzero;fill:rgb(68.235294%,56.862745%,45.098039%);fill-opacity:1;" d="M 26.210938 48.265625 L 26.210938 50.066406 L 27.699219 49.320312 C 27.714844 49.304688 27.730469 49.289062 27.730469 49.273438 L 27.730469 47.554688 Z M 26.210938 48.265625 "/>
<path style=" stroke:none;fill-rule:nonzero;fill:rgb(68.235294%,56.862745%,45.098039%);fill-opacity:1;" d="M 27.667969 47.460938 L 26.164062 46.808594 C 26.148438 46.808594 26.132812 46.808594 26.117188 46.808594 L 25.421875 47.089844 L 26.953125 47.785156 Z M 27.667969 47.460938 "/>
</g>
</svg>
