<?xml version="1.0" encoding="UTF-8"?>
<svg xmlns="http://www.w3.org/2000/svg" xmlns:xlink="http://www.w3.org/1999/xlink" width="62pt" height="62pt" viewBox="0 0 62 62" version="1.1">
<g id="surface1">
<path style=" stroke:none;fill-rule:nonzero;fill:rgb(68.235294%,56.862745%,45.098039%);fill-opacity:1;" d="M 62 31 C 62 48.121094 48.121094 62 31 62 C 13.878906 62 0 48.121094 0 31 C 0 13.878906 13.878906 0 31 0 C 48.121094 0 62 13.878906 62 31 Z M 62 31 "/>
<path style=" stroke:none;fill-rule:nonzero;fill:rgb(100%,100%,100%);fill-opacity:1;" d="M 33.742188 12.8125 C 23.695312 11.242188 14.277344 18.117188 12.710938 28.164062 C 11.140625 38.210938 18.015625 47.628906 28.0625 49.195312 C 38.109375 50.765625 47.527344 43.890625 49.09375 33.84375 C 50.664062 23.796875 43.789062 14.378906 33.742188 12.8125 Z M 33.742188 12.8125 "/>
<path style=" stroke:none;fill-rule:nonzero;fill:rgb(100%,100%,100%);fill-opacity:1;" d="M 9.222656 35.246094 C 9.222656 34.195312 8.367188 33.339844 7.316406 33.339844 C 6.261719 33.339844 5.410156 34.195312 5.410156 35.246094 C 5.410156 36.300781 6.261719 37.152344 7.316406 37.152344 C 8.367188 37.152344 9.222656 36.300781 9.222656 35.246094 Z M 9.222656 35.246094 "/>
<path style=" stroke:none;fill-rule:nonzero;fill:rgb(100%,100%,100%);fill-opacity:1;" d="M 8.507812 34.617188 L 13.917969 33.597656 L 14.140625 34.789062 L 8.734375 35.804688 Z M 8.507812 34.617188 "/>
<path style=" stroke:none;fill-rule:nonzero;fill:rgb(100%,100%,100%);fill-opacity:1;" d="M 56.421875 26.242188 C 56.421875 25.1875 55.566406 24.335938 54.511719 24.335938 C 53.460938 24.335938 52.605469 25.1875 52.605469 26.242188 C 52.605469 27.292969 53.460938 28.148438 54.511719 28.148438 C 55.566406 28.148438 56.421875 27.292969 56.421875 26.242188 Z M 56.421875 26.242188 "/>
<path style=" stroke:none;fill-rule:nonzero;fill:rgb(100%,100%,100%);fill-opacity:1;" d="M 47.863281 27.175781 L 53.269531 26.160156 L 53.492188 27.347656 L 48.085938 28.367188 Z M 47.863281 27.175781 "/>
<path style=" stroke:none;fill-rule:nonzero;fill:rgb(100%,100%,100%);fill-opacity:1;" d="M 28.335938 7.285156 C 28.335938 6.242188 27.488281 5.394531 26.441406 5.394531 C 25.398438 5.394531 24.550781 6.242188 24.550781 7.285156 C 24.550781 8.328125 25.398438 9.175781 26.441406 9.175781 C 27.488281 9.175781 28.335938 8.328125 28.335938 7.285156 Z M 28.335938 7.285156 "/>
<path style=" stroke:none;fill-rule:nonzero;fill:rgb(100%,100%,100%);fill-opacity:1;" d="M 26.097656 8.714844 L 27.285156 8.488281 L 28.304688 13.898438 L 27.117188 14.121094 Z M 26.097656 8.714844 "/>
<path style=" stroke:none;fill-rule:nonzero;fill:rgb(100%,100%,100%);fill-opacity:1;" d="M 37.261719 54.714844 C 37.261719 53.671875 36.414062 52.824219 35.371094 52.824219 C 34.328125 52.824219 33.480469 53.671875 33.480469 54.714844 C 33.480469 55.757812 34.328125 56.605469 35.371094 56.605469 C 36.414062 56.605469 37.261719 55.757812 37.261719 54.714844 Z M 37.261719 54.714844 "/>
<path style=" stroke:none;fill-rule:nonzero;fill:rgb(100%,100%,100%);fill-opacity:1;" d="M 33.507812 48.097656 L 34.695312 47.875 L 35.714844 53.28125 L 34.527344 53.507812 Z M 33.507812 48.097656 "/>
<path style=" stroke:none;fill-rule:nonzero;fill:rgb(100%,100%,100%);fill-opacity:1;" d="M 19.21875 50.886719 C 19.21875 49.84375 18.375 48.996094 17.328125 48.996094 C 16.285156 48.996094 15.4375 49.84375 15.4375 50.886719 C 15.4375 51.929688 16.285156 52.777344 17.328125 52.777344 C 18.375 52.777344 19.21875 51.929688 19.21875 50.886719 Z M 19.21875 50.886719 "/>
<path style=" stroke:none;fill-rule:nonzero;fill:rgb(100%,100%,100%);fill-opacity:1;" d="M 17.582031 49.449219 L 20.683594 44.90625 L 21.683594 45.585938 L 18.582031 50.132812 Z M 17.582031 49.449219 "/>
<path style=" stroke:none;fill-rule:nonzero;fill:rgb(100%,100%,100%);fill-opacity:1;" d="M 46.421875 11.035156 C 46.421875 9.992188 45.574219 9.144531 44.53125 9.144531 C 43.488281 9.144531 42.640625 9.992188 42.640625 11.035156 C 42.640625 12.082031 43.488281 12.925781 44.53125 12.925781 C 45.574219 12.925781 46.421875 12.082031 46.421875 11.035156 Z M 46.421875 11.035156 "/>
<path style=" stroke:none;fill-rule:nonzero;fill:rgb(100%,100%,100%);fill-opacity:1;" d="M 40.171875 16.351562 L 43.277344 11.808594 L 44.273438 12.492188 L 41.171875 17.035156 Z M 40.171875 16.351562 "/>
<path style=" stroke:none;fill-rule:nonzero;fill:rgb(100%,100%,100%);fill-opacity:1;" d="M 12.847656 17.4375 C 12.847656 16.394531 12.003906 15.546875 10.957031 15.546875 C 9.914062 15.546875 9.066406 16.394531 9.066406 17.4375 C 9.066406 18.480469 9.914062 19.328125 10.957031 19.328125 C 12.003906 19.328125 12.847656 18.480469 12.847656 17.4375 Z M 12.847656 17.4375 "/>
<path style=" stroke:none;fill-rule:nonzero;fill:rgb(100%,100%,100%);fill-opacity:1;" d="M 11.730469 18.699219 L 12.410156 17.703125 L 16.957031 20.804688 L 16.277344 21.804688 Z M 11.730469 18.699219 "/>
<path style=" stroke:none;fill-rule:nonzero;fill:rgb(100%,100%,100%);fill-opacity:1;" d="M 52.683594 44.640625 C 52.683594 43.59375 51.835938 42.75 50.792969 42.75 C 49.75 42.75 48.902344 43.59375 48.902344 44.640625 C 48.902344 45.683594 49.75 46.53125 50.792969 46.53125 C 51.835938 46.53125 52.683594 45.683594 52.683594 44.640625 Z M 52.683594 44.640625 "/>
<path style=" stroke:none;fill-rule:nonzero;fill:rgb(100%,100%,100%);fill-opacity:1;" d="M 44.804688 41.289062 L 45.484375 40.292969 L 50.03125 43.394531 L 49.347656 44.390625 Z M 44.804688 41.289062 "/>
<path style=" stroke:none;fill-rule:nonzero;fill:rgb(100%,100%,100%);fill-opacity:1;" d="M 11.644531 42.007812 C 10.636719 41.847656 9.695312 42.542969 9.535156 43.558594 C 9.375 44.574219 10.0625 45.523438 11.070312 45.679688 C 12.078125 45.839844 13.019531 45.144531 13.179688 44.128906 C 13.339844 43.113281 12.652344 42.164062 11.644531 42.007812 Z M 11.644531 42.007812 "/>
<path style=" stroke:none;fill-rule:nonzero;fill:rgb(100%,100%,100%);fill-opacity:1;" d="M 12.128906 42.636719 L 16.617188 39.703125 L 17.261719 40.6875 L 12.773438 43.621094 Z M 12.128906 42.636719 "/>
<path style=" stroke:none;fill-rule:nonzero;fill:rgb(100%,100%,100%);fill-opacity:1;" d="M 50.824219 16.019531 C 49.808594 15.863281 48.863281 16.5625 48.707031 17.578125 C 48.554688 18.59375 49.253906 19.542969 50.269531 19.695312 C 51.285156 19.851562 52.230469 19.152344 52.386719 18.136719 C 52.539062 17.121094 51.839844 16.171875 50.824219 16.019531 Z M 50.824219 16.019531 "/>
<path style=" stroke:none;fill-rule:nonzero;fill:rgb(100%,100%,100%);fill-opacity:1;" d="M 44.832031 21.246094 L 49.324219 18.3125 L 49.96875 19.296875 L 45.476562 22.230469 Z M 44.832031 21.246094 "/>
<path style=" stroke:none;fill-rule:nonzero;fill:rgb(100%,100%,100%);fill-opacity:1;" d="M 18.382812 9.496094 C 17.375 9.339844 16.433594 10.027344 16.277344 11.035156 C 16.121094 12.039062 16.808594 12.984375 17.816406 13.140625 C 18.820312 13.296875 19.765625 12.609375 19.921875 11.601562 C 20.078125 10.59375 19.390625 9.652344 18.382812 9.496094 Z M 18.382812 9.496094 "/>
<path style=" stroke:none;fill-rule:nonzero;fill:rgb(100%,100%,100%);fill-opacity:1;" d="M 18.3125 12.730469 L 19.296875 12.085938 L 22.234375 16.574219 L 21.25 17.21875 Z M 18.3125 12.730469 "/>
<path style=" stroke:none;fill-rule:nonzero;fill:rgb(100%,100%,100%);fill-opacity:1;" d="M 44.136719 48.863281 C 43.132812 48.707031 42.1875 49.402344 42.027344 50.417969 C 41.871094 51.433594 42.558594 52.382812 43.566406 52.539062 C 44.570312 52.695312 45.515625 52 45.675781 50.984375 C 45.832031 49.96875 45.144531 49.019531 44.136719 48.863281 Z M 44.136719 48.863281 "/>
<path style=" stroke:none;fill-rule:nonzero;fill:rgb(100%,100%,100%);fill-opacity:1;" d="M 39.707031 45.445312 L 40.695312 44.800781 L 43.628906 49.289062 L 42.644531 49.933594 Z M 39.707031 45.445312 "/>
<path style=" stroke:none;fill-rule:nonzero;fill:rgb(100%,100%,100%);fill-opacity:1;" d="M 26.441406 52.175781 C 25.433594 52.019531 24.488281 52.707031 24.332031 53.714844 C 24.175781 54.71875 24.863281 55.664062 25.871094 55.820312 C 26.878906 55.976562 27.820312 55.289062 27.976562 54.28125 C 28.136719 53.273438 27.445312 52.332031 26.441406 52.175781 Z M 26.441406 52.175781 "/>
<path style=" stroke:none;fill-rule:nonzero;fill:rgb(100%,100%,100%);fill-opacity:1;" d="M 25.851562 52.601562 L 26.949219 47.355469 L 28.101562 47.59375 L 27.003906 52.84375 Z M 25.851562 52.601562 "/>
<path style=" stroke:none;fill-rule:nonzero;fill:rgb(100%,100%,100%);fill-opacity:1;" d="M 35.933594 5.941406 C 34.917969 5.785156 33.972656 6.484375 33.816406 7.5 C 33.664062 8.515625 34.363281 9.464844 35.378906 9.617188 C 36.394531 9.773438 37.339844 9.074219 37.496094 8.058594 C 37.648438 7.042969 36.949219 6.09375 35.933594 5.941406 Z M 35.933594 5.941406 "/>
<path style=" stroke:none;fill-rule:nonzero;fill:rgb(100%,100%,100%);fill-opacity:1;" d="M 33.863281 14.335938 L 34.960938 9.089844 L 36.113281 9.328125 L 35.015625 14.578125 Z M 33.863281 14.335938 "/>
<path style=" stroke:none;fill-rule:nonzero;fill:rgb(100%,100%,100%);fill-opacity:1;" d="M 8.21875 24.417969 C 7.210938 24.257812 6.269531 24.949219 6.113281 25.953125 C 5.957031 26.960938 6.644531 27.90625 7.652344 28.0625 C 8.65625 28.21875 9.601562 27.53125 9.757812 26.523438 C 9.914062 25.515625 9.226562 24.574219 8.21875 24.417969 Z M 8.21875 24.417969 "/>
<path style=" stroke:none;fill-rule:nonzero;fill:rgb(100%,100%,100%);fill-opacity:1;" d="M 9.085938 27.082031 L 9.328125 25.925781 L 14.578125 27.027344 L 14.335938 28.179688 Z M 9.085938 27.082031 "/>
<path style=" stroke:none;fill-rule:nonzero;fill:rgb(100%,100%,100%);fill-opacity:1;" d="M 54.277344 34.050781 C 53.273438 33.894531 52.328125 34.589844 52.167969 35.605469 C 52.011719 36.621094 52.699219 37.570312 53.703125 37.726562 C 54.710938 37.886719 55.65625 37.191406 55.8125 36.175781 C 55.972656 35.160156 55.285156 34.210938 54.277344 34.050781 Z M 54.277344 34.050781 "/>
<path style=" stroke:none;fill-rule:nonzero;fill:rgb(100%,100%,100%);fill-opacity:1;" d="M 47.335938 35.089844 L 47.578125 33.933594 L 52.828125 35.035156 L 52.585938 36.1875 Z M 47.335938 35.089844 "/>
<path style="fill:none;stroke-width:20;stroke-linecap:butt;stroke-linejoin:miter;stroke:rgb(68.235294%,56.862745%,45.098039%);stroke-opacity:1;stroke-miterlimit:10;" d="M 59.097782 61.391129 L 336.491935 338.91129 " transform="matrix(0.155,0,0,0.155,0,0)"/>
</g>
</svg>
