<?xml version="1.0" encoding="UTF-8"?>
<svg xmlns="http://www.w3.org/2000/svg" xmlns:xlink="http://www.w3.org/1999/xlink" width="62pt" height="62pt" viewBox="0 0 62 62" version="1.1">
<g id="surface1">
<path style=" stroke:none;fill-rule:nonzero;fill:rgb(68.235294%,56.862745%,45.098039%);fill-opacity:1;" d="M 62 31 C 62 48.121094 48.121094 62 31 62 C 13.878906 62 0 48.121094 0 31 C 0 13.878906 13.878906 0 31 0 C 48.121094 0 62 13.878906 62 31 Z M 62 31 "/>
<path style=" stroke:none;fill-rule:nonzero;fill:rgb(100%,100%,100%);fill-opacity:1;" d="M 47.183594 44.5625 C 47.183594 45.785156 46.191406 46.777344 44.964844 46.777344 C 44.964844 46.777344 44.964844 46.777344 44.949219 46.777344 L 37.601562 46.777344 C 36.378906 46.777344 35.386719 45.785156 35.371094 44.5625 L 35.371094 38.984375 C 35.371094 38.457031 35.804688 38.023438 36.332031 38.023438 L 46.207031 38.023438 C 46.734375 38.023438 47.167969 38.457031 47.167969 38.984375 L 47.167969 44.5625 Z M 36.6875 35.976562 C 36.734375 33.433594 38.828125 31.417969 41.371094 31.464844 C 43.835938 31.511719 45.832031 33.496094 45.878906 35.976562 L 45.878906 36.9375 L 44.34375 36.9375 L 44.34375 35.976562 C 44.375 34.285156 43.042969 32.890625 41.355469 32.84375 C 39.664062 32.8125 38.269531 34.148438 38.222656 35.835938 C 38.222656 35.882812 38.222656 35.929688 38.222656 35.976562 L 38.222656 36.9375 L 36.6875 36.9375 Z M 49.367188 30.210938 C 47.058594 30.226562 44.765625 29.789062 42.625 28.921875 C 42.378906 28.828125 42.128906 28.722656 41.898438 28.597656 L 41.402344 28.335938 L 40.90625 28.597656 C 40.671875 28.722656 40.425781 28.828125 40.175781 28.921875 C 38.035156 29.789062 35.742188 30.226562 33.433594 30.210938 C 32.9375 30.210938 32.425781 30.195312 31.898438 30.164062 L 30.738281 30.085938 L 30.738281 36.191406 C 30.722656 39.914062 31.820312 43.539062 33.914062 46.609375 C 35.710938 49.257812 37.851562 50.933594 40.285156 51.597656 C 40.59375 51.691406 40.921875 51.753906 41.230469 51.816406 L 41.402344 51.847656 L 41.570312 51.816406 C 41.898438 51.769531 42.207031 51.691406 42.515625 51.597656 C 44.949219 50.933594 47.089844 49.242188 48.886719 46.609375 C 50.964844 43.539062 52.078125 39.898438 52.066406 36.191406 L 52.066406 30.085938 L 50.902344 30.164062 C 50.390625 30.195312 49.863281 30.210938 49.367188 30.210938 Z M 49.367188 30.210938 "/>
<path style=" stroke:none;fill-rule:nonzero;fill:rgb(100%,100%,100%);fill-opacity:1;" d="M 41.277344 39.914062 C 40.578125 39.914062 40.003906 40.46875 40.003906 41.167969 C 40.003906 41.601562 40.238281 42.019531 40.609375 42.253906 L 40.609375 43.820312 C 40.59375 44.191406 40.875 44.5 41.246094 44.515625 C 41.617188 44.53125 41.925781 44.253906 41.941406 43.878906 C 41.941406 43.863281 41.941406 43.835938 41.941406 43.820312 L 41.941406 42.253906 C 42.53125 41.882812 42.71875 41.105469 42.363281 40.5 C 42.128906 40.144531 41.710938 39.914062 41.277344 39.914062 Z M 41.277344 39.914062 "/>
<path style=" stroke:none;fill-rule:nonzero;fill:rgb(100%,100%,100%);fill-opacity:1;" d="M 13.300781 22.039062 C 13.300781 21.621094 13.640625 21.28125 14.058594 21.28125 L 14.710938 21.28125 L 14.710938 23.652344 C 14.710938 24.070312 15.050781 24.414062 15.453125 24.414062 L 17.515625 24.414062 L 17.515625 24.753906 C 17.515625 25.171875 17.175781 25.511719 16.769531 25.511719 L 14.042969 25.511719 C 13.625 25.511719 13.285156 25.171875 13.285156 24.753906 Z M 15.40625 20.257812 C 15.40625 19.839844 15.746094 19.5 16.167969 19.5 L 18.878906 19.5 C 19.296875 19.5 19.636719 19.839844 19.636719 20.257812 L 19.636719 22.972656 C 19.636719 23.390625 19.296875 23.730469 18.878906 23.730469 L 16.167969 23.730469 C 15.746094 23.730469 15.40625 23.390625 15.40625 22.972656 Z M 21.605469 30.179688 C 21.605469 30.441406 21.40625 30.644531 21.140625 30.644531 C 21.140625 30.644531 21.140625 30.644531 21.125 30.644531 L 18.460938 30.644531 C 18.195312 30.644531 17.996094 30.425781 17.996094 30.179688 C 17.996094 29.914062 18.210938 29.714844 18.460938 29.714844 L 21.125 29.714844 C 21.390625 29.714844 21.589844 29.914062 21.589844 30.164062 C 21.605469 30.164062 21.605469 30.164062 21.605469 30.179688 Z M 23.015625 29.714844 L 25.683594 29.714844 C 25.945312 29.714844 26.148438 29.929688 26.148438 30.179688 C 26.148438 30.441406 25.929688 30.644531 25.683594 30.644531 L 23.015625 30.644531 C 22.753906 30.644531 22.550781 30.425781 22.550781 30.179688 C 22.550781 29.929688 22.753906 29.714844 23.015625 29.714844 Z M 23.511719 24.953125 L 43.324219 24.953125 C 43.617188 24.96875 43.835938 25.21875 43.820312 25.511719 C 43.804688 25.777344 43.585938 25.992188 43.324219 26.007812 L 23.511719 26.007812 C 23.21875 26.023438 22.972656 25.808594 22.957031 25.511719 C 22.941406 25.21875 23.15625 24.96875 23.453125 24.953125 C 23.46875 24.953125 23.484375 24.953125 23.511719 24.953125 Z M 23.511719 22.335938 L 43.324219 22.335938 C 43.617188 22.335938 43.847656 22.566406 43.847656 22.863281 C 43.847656 23.15625 43.617188 23.390625 43.324219 23.390625 L 23.511719 23.390625 C 23.21875 23.390625 22.988281 23.15625 22.988281 22.863281 C 22.972656 22.582031 23.21875 22.335938 23.511719 22.335938 Z M 23.511719 19.714844 L 43.324219 19.714844 C 43.617188 19.730469 43.835938 19.980469 43.820312 20.273438 C 43.804688 20.539062 43.585938 20.753906 43.324219 20.769531 L 23.511719 20.769531 C 23.21875 20.785156 22.972656 20.570312 22.957031 20.273438 C 22.941406 19.980469 23.15625 19.730469 23.453125 19.714844 C 23.46875 19.714844 23.484375 19.714844 23.511719 19.714844 Z M 16.570312 30.644531 L 13.886719 30.644531 C 13.625 30.644531 13.421875 30.425781 13.421875 30.179688 C 13.421875 29.914062 13.640625 29.714844 13.886719 29.714844 L 16.554688 29.714844 C 16.816406 29.714844 17.019531 29.929688 17.019531 30.179688 C 17.035156 30.441406 16.832031 30.644531 16.570312 30.644531 Z M 12.058594 42.53125 L 30.132812 42.53125 C 29.835938 41.632812 29.605469 40.703125 29.433594 39.773438 L 14.382812 39.773438 C 13.855469 39.773438 13.421875 39.339844 13.421875 38.8125 L 13.421875 37.121094 C 13.421875 36.59375 13.855469 36.160156 14.382812 36.160156 L 29.125 36.160156 L 29.125 30.644531 L 27.574219 30.644531 C 27.3125 30.644531 27.109375 30.425781 27.109375 30.179688 C 27.109375 29.914062 27.328125 29.714844 27.574219 29.714844 L 29.125 29.714844 L 29.125 28.363281 L 31.992188 28.566406 C 32.472656 28.597656 32.953125 28.613281 33.417969 28.613281 C 35.527344 28.628906 37.617188 28.226562 39.570312 27.433594 C 39.773438 27.359375 39.960938 27.265625 40.160156 27.171875 L 41.402344 26.535156 L 42.640625 27.171875 C 42.828125 27.265625 43.027344 27.359375 43.214844 27.433594 C 44.316406 27.882812 45.476562 28.210938 46.65625 28.394531 L 46.65625 19.40625 C 46.65625 18.089844 45.585938 17.035156 44.285156 17.035156 L 12.308594 17.035156 C 10.988281 17.035156 9.933594 18.105469 9.933594 19.40625 L 9.933594 40.410156 C 9.933594 41.585938 10.882812 42.53125 12.058594 42.53125 Z M 12.058594 42.53125 "/>
</g>
</svg>
