<?xml version="1.0" encoding="UTF-8"?>
<svg xmlns="http://www.w3.org/2000/svg" xmlns:xlink="http://www.w3.org/1999/xlink" width="63pt" height="30pt" viewBox="0 0 63 30" version="1.1">
<g id="surface1">
<path style="fill-rule:nonzero;fill:rgb(100%,100%,100%);fill-opacity:1;stroke-width:0.67;stroke-linecap:butt;stroke-linejoin:miter;stroke:rgb(87.843137%,87.843137%,87.843137%);stroke-opacity:1;stroke-miterlimit:4;" d="M 35.999628 0.700781 L 2.000372 0.700781 C 1.701141 0.700781 1.500868 0.799219 1.300595 1.000781 C 1.100322 1.2 0.999008 1.399219 0.999008 1.699219 L 0.999008 16.399219 C 0.999008 16.699219 1.100322 16.900781 1.300595 17.1 C 1.500868 17.299219 1.701141 17.4 2.000372 17.4 L 35.999628 17.4 C 36.298859 17.4 36.499132 17.299219 36.699405 17.1 C 36.899678 16.900781 37.000992 16.699219 37.000992 16.399219 L 37.000992 1.699219 C 37.000992 1.399219 36.899678 1.2 36.699405 1.000781 C 36.499132 0.9 36.298859 0.700781 35.999628 0.700781 Z M 35.999628 0.700781 " transform="matrix(1.657895,0,0,1.666667,0,0)"/>
<path style=" stroke:none;fill-rule:nonzero;fill:rgb(30.588235%,30.588235%,30.588235%);fill-opacity:1;" d="M 24.535156 12 C 24.535156 12.5 24.207031 13 23.875 13.332031 C 23.542969 13.667969 22.878906 13.832031 22.382812 13.832031 C 22.050781 13.832031 21.550781 13.667969 21.222656 13.5 C 20.890625 13.332031 20.558594 13 20.390625 12.667969 C 20.226562 12.332031 20.058594 11.832031 20.058594 11.332031 L 20.058594 11 C 20.058594 10.5 20.226562 10.167969 20.390625 9.667969 C 20.558594 9.332031 20.890625 9 21.222656 8.832031 C 21.550781 8.667969 21.882812 8.5 22.382812 8.5 C 22.878906 8.5 23.375 8.667969 23.875 9 C 24.207031 9.332031 24.535156 9.832031 24.535156 10.332031 L 23.542969 10.332031 C 23.542969 10 23.375 9.667969 23.210938 9.5 C 23.042969 9.332031 22.714844 9.167969 22.382812 9.167969 C 22.214844 9.167969 22.050781 9.167969 21.882812 9.332031 C 21.71875 9.332031 21.550781 9.5 21.550781 9.667969 C 21.386719 10 21.222656 10.5 21.222656 11 L 21.222656 11.5 C 21.222656 12 21.386719 12.332031 21.550781 12.832031 C 21.71875 13 21.71875 13.167969 21.882812 13.167969 C 22.050781 13.167969 22.214844 13.332031 22.382812 13.332031 C 22.714844 13.332031 23.042969 13.332031 23.210938 13 C 23.375 12.832031 23.542969 12.5 23.542969 12.167969 Z M 28.351562 12.667969 L 26.359375 12.667969 L 25.863281 13.832031 L 24.867188 13.832031 L 26.859375 8.5 L 27.6875 8.5 L 29.675781 13.832031 L 28.679688 13.832031 Z M 26.527344 11.832031 L 28.019531 11.832031 L 27.191406 9.667969 Z M 33.15625 12.332031 C 33.15625 12.167969 33.15625 12.167969 33.15625 12 C 33.15625 11.832031 32.992188 11.832031 32.992188 11.832031 C 32.660156 11.667969 32.496094 11.5 32.164062 11.5 C 31.832031 11.332031 31.5 11.332031 31.167969 11 C 31.003906 10.832031 30.835938 10.667969 30.671875 10.5 C 30.503906 10.332031 30.503906 10 30.503906 9.832031 C 30.503906 9.667969 30.503906 9.5 30.671875 9.167969 C 30.835938 9 30.835938 8.832031 31.003906 8.667969 C 31.335938 8.5 31.832031 8.332031 32.328125 8.332031 C 32.660156 8.332031 32.992188 8.332031 33.324219 8.5 C 33.65625 8.667969 33.820312 8.832031 33.988281 9 C 34.152344 9.332031 34.320312 9.5 34.152344 9.832031 L 33.15625 9.832031 C 33.15625 9.667969 33.15625 9.667969 33.15625 9.5 C 33.15625 9.332031 32.992188 9.332031 32.992188 9.167969 C 32.828125 9 32.496094 8.832031 32.164062 8.832031 C 31.996094 8.832031 31.664062 8.832031 31.5 9 L 31.335938 9.167969 C 31.335938 9.332031 31.335938 9.332031 31.335938 9.5 C 31.335938 9.667969 31.335938 9.667969 31.335938 9.832031 C 31.335938 10 31.5 10 31.5 10 C 31.832031 10.167969 31.996094 10.332031 32.328125 10.332031 C 32.660156 10.5 32.992188 10.5 33.324219 10.667969 C 33.488281 10.832031 33.820312 11 33.820312 11.167969 C 33.988281 11.332031 33.988281 11.667969 33.988281 11.832031 C 33.988281 12 33.988281 12.167969 33.820312 12.5 C 33.820312 13.332031 33.65625 13.5 33.488281 13.5 C 33.15625 13.832031 32.660156 14 32.164062 13.832031 C 31.832031 13.832031 31.5 13.832031 31.167969 13.667969 C 30.835938 13.5 30.671875 13.332031 30.339844 13 C 30.171875 12.667969 30.007812 12.5 30.007812 12.167969 L 31.003906 12.167969 C 31.003906 12.332031 31.003906 12.5 31.003906 12.5 C 31.003906 12.667969 31.167969 12.667969 31.167969 12.832031 C 31.335938 13 31.664062 13.167969 31.996094 13.167969 C 32.328125 13.167969 32.496094 13.167969 32.660156 13 C 32.828125 13 32.828125 12.832031 32.828125 12.832031 C 33.15625 12.667969 33.15625 12.667969 33.15625 12.332031 Z M 39.125 13.667969 L 38.296875 13.667969 L 38.296875 11.5 L 35.976562 11.5 L 35.976562 13.832031 L 34.980469 13.832031 L 34.980469 8.5 L 35.976562 8.5 L 35.976562 10.832031 L 38.296875 10.832031 L 38.296875 8.5 L 39.125 8.5 Z M 46.253906 11.332031 C 46.253906 11.832031 46.253906 12.332031 45.921875 12.667969 C 45.757812 13 45.425781 13.332031 45.09375 13.5 C 44.761719 13.667969 44.429688 13.832031 43.933594 13.832031 C 43.601562 13.832031 43.105469 13.667969 42.773438 13.5 C 42.441406 13.332031 42.109375 13 41.945312 12.667969 C 41.777344 12.167969 41.613281 11.832031 41.613281 11.332031 L 41.613281 11 C 41.613281 10.5 41.613281 10 41.945312 9.667969 C 42.109375 9.332031 42.441406 9 42.773438 8.667969 C 43.105469 8.5 43.269531 8.332031 43.601562 8.332031 C 43.933594 8.332031 44.265625 8.332031 44.429688 8.332031 C 44.761719 8.5 44.929688 8.5 45.261719 8.832031 C 45.425781 9 45.757812 9.332031 45.757812 9.5 C 45.921875 10 46.089844 10.332031 46.089844 10.832031 Z M 45.261719 11 C 45.261719 10.5 45.09375 10 44.929688 9.667969 C 44.761719 9.5 44.761719 9.332031 44.597656 9.332031 C 44.429688 9.332031 44.265625 9.167969 44.101562 9.167969 C 43.933594 9.167969 43.769531 9.167969 43.601562 9.332031 C 43.4375 9.332031 43.269531 9.5 43.269531 9.667969 C 43.105469 10 42.941406 10.5 42.941406 11 L 42.941406 11.332031 C 42.941406 11.832031 43.105469 12.332031 43.269531 12.667969 C 43.4375 12.832031 43.4375 13 43.601562 13 C 43.769531 13.167969 43.933594 13.167969 44.101562 13.167969 C 44.265625 13.167969 44.429688 13.167969 44.597656 13 C 44.761719 13 44.929688 12.832031 44.929688 12.667969 C 45.09375 12.332031 45.261719 11.832031 45.261719 11.332031 Z M 51.394531 13.667969 L 50.398438 13.667969 L 48.078125 10.167969 L 48.078125 13.832031 L 47.085938 13.832031 L 47.085938 8.5 L 48.078125 8.5 L 50.398438 12.332031 L 50.398438 8.5 L 51.394531 8.5 Z M 20.558594 22 L 20.558594 16.667969 L 22.214844 16.667969 C 22.714844 16.667969 23.042969 16.832031 23.542969 17 C 23.875 17.167969 24.207031 17.5 24.371094 17.832031 C 24.535156 18.167969 24.703125 18.667969 24.703125 19.167969 L 24.703125 19.5 C 24.703125 20 24.535156 20.5 24.371094 20.832031 C 24.207031 21.167969 23.875 21.5 23.542969 21.667969 C 23.210938 21.832031 22.714844 22 22.214844 22 Z M 21.386719 17.667969 L 21.386719 21.5 L 22.050781 21.5 C 22.214844 21.5 22.382812 21.5 22.714844 21.332031 C 22.878906 21.332031 23.042969 21.167969 23.210938 21 C 23.542969 20.667969 23.707031 20.167969 23.542969 19.667969 L 23.542969 19.332031 C 23.542969 18.832031 23.375 18.332031 23.210938 18 C 23.042969 17.832031 22.878906 17.667969 22.714844 17.667969 C 22.546875 17.667969 22.382812 17.5 22.050781 17.5 L 21.386719 17.5 Z M 28.515625 19.832031 L 26.359375 19.832031 L 26.359375 21.5 L 28.847656 21.5 L 28.847656 22.167969 L 25.367188 22.167969 L 25.367188 16.832031 L 28.679688 16.832031 L 28.679688 17.5 L 26.195312 17.5 L 26.195312 19 L 28.351562 19 Z M 30.503906 21.5 L 32.828125 21.5 L 32.828125 22.167969 L 29.511719 22.167969 L 29.511719 16.832031 L 30.503906 16.832031 Z M 34.648438 22 L 33.820312 22 L 33.820312 16.667969 L 34.648438 16.667969 Z M 37.632812 21 L 38.960938 16.832031 L 39.957031 16.832031 L 37.964844 22.167969 L 37.136719 22.167969 L 35.3125 16.832031 L 36.308594 16.832031 Z M 43.601562 19.832031 L 41.449219 19.832031 L 41.449219 21.5 L 43.933594 21.5 L 43.933594 22.167969 L 40.453125 22.167969 L 40.453125 16.832031 L 43.933594 16.832031 L 43.933594 17.5 L 41.449219 17.5 L 41.449219 19 L 43.601562 19 Z M 46.753906 20.167969 L 45.757812 20.167969 L 45.757812 22.167969 L 44.761719 22.167969 L 44.761719 16.832031 L 46.585938 16.832031 C 47.085938 16.832031 47.582031 17 48.078125 17.167969 C 48.246094 17.332031 48.410156 17.5 48.410156 17.667969 C 48.578125 17.832031 48.578125 18.167969 48.578125 18.332031 C 48.578125 18.667969 48.410156 19 48.246094 19.167969 C 48.078125 19.332031 47.746094 19.667969 47.582031 19.667969 L 48.742188 21.832031 L 47.746094 21.832031 Z M 45.757812 19.332031 L 46.753906 19.332031 C 47.085938 19.332031 47.25 19.332031 47.414062 19.167969 C 47.582031 19.167969 47.582031 19 47.582031 18.832031 C 47.582031 18.667969 47.582031 18.667969 47.582031 18.5 C 47.582031 18.332031 47.582031 18.332031 47.582031 18.167969 C 47.582031 18 47.414062 18 47.414062 17.832031 C 47.25 17.667969 47.25 17.667969 47.085938 17.667969 C 46.917969 17.667969 46.753906 17.667969 46.753906 17.667969 L 45.757812 17.667969 Z M 51.0625 19.332031 L 52.222656 16.832031 L 53.21875 16.832031 L 51.394531 20.167969 L 51.394531 22.167969 L 50.398438 22.167969 L 50.398438 20.167969 L 48.578125 16.832031 L 49.570312 16.832031 Z M 51.0625 19.332031 "/>
<path style=" stroke:none;fill-rule:nonzero;fill:rgb(12.941176%,12.941176%,12.941176%);fill-opacity:1;" d="M 9.617188 13.667969 L 9.285156 14.5 L 13.59375 14.5 C 13.429688 15 13.261719 15.5 12.765625 15.832031 C 12.101562 16.332031 11.109375 16.5 10.277344 16.5 L 9.449219 16.5 L 9.449219 17.5 C 9.78125 17.5 10.277344 17.667969 10.609375 17.832031 C 10.941406 18.167969 11.273438 18.332031 11.441406 18.832031 L 14.421875 22.832031 L 16.246094 22.832031 L 12.765625 18.332031 C 12.601562 18 12.269531 17.667969 11.9375 17.332031 C 12.765625 17.167969 13.429688 16.832031 14.09375 16.332031 C 14.589844 15.667969 14.921875 15.167969 14.921875 14.667969 L 16.746094 14.667969 L 17.078125 13.832031 L 14.921875 13.832031 C 14.921875 13.5 14.753906 13 14.589844 12.667969 C 14.421875 12.332031 14.09375 12 13.761719 11.667969 L 16.746094 11.667969 L 17.078125 10.832031 L 9.449219 10.832031 L 9.117188 11.667969 L 10.609375 11.667969 C 11.273438 11.667969 12.101562 11.832031 12.601562 12.332031 C 12.929688 12.667969 13.261719 13.167969 13.261719 13.667969 Z M 9.617188 13.667969 "/>
</g>
</svg>
